<svg width="476" height="172" viewBox="0 0 476 172" fill="none" xmlns="http://www.w3.org/2000/svg">
<path d="M178.302 102.098H342.502C352.202 102.098 357.402 109.698 354.202 118.598L338.902 161.598C336.802 167.398 329.402 171.798 322.202 171.798H200.202C193.002 171.798 185.502 167.398 183.302 161.598L167.002 118.598C163.602 109.698 168.502 102.098 178.302 102.098Z" fill="#ADCDF6"/>
<path opacity="0.2" d="M178.201 102.098C168.501 102.098 163.501 109.698 166.901 118.598L177.401 146.398C207.501 149.798 285.501 156.998 344.201 146.398L354.101 118.598C357.301 109.698 352.101 102.098 342.401 102.098H178.201Z" fill="black"/>
<path d="M182.9 160.699L183.3 161.599C185.5 167.399 193 171.799 200.2 171.799H322.2C329.4 171.799 336.8 167.399 338.9 161.599L339.2 160.699H182.9Z" fill="#2B7AE4"/>
<path d="M129.001 18.597C129.001 18.597 77.2014 7.59697 48.8014 13.997C22.5014 19.897 1.80143 24.197 5.70143 31.197C12.1014 42.797 52.9014 22.097 45.8014 55.797C80.6014 40.297 129.001 18.597 129.001 18.597ZM128.601 125.297C128.601 125.297 76.7014 135.897 48.4014 129.297C22.2014 123.197 1.50144 118.697 5.40144 111.797C11.9014 100.297 52.6014 121.297 45.7014 87.497C80.3014 103.197 128.601 125.297 128.601 125.297Z" fill="#ADCDF6"/>
<path opacity="0.3" d="M85.3008 12.5977C68.2008 20.3977 51.0008 29.3977 38.3008 36.3977C44.6008 38.3977 48.4008 43.3977 45.8008 55.7977C80.5008 40.3977 129.001 18.5977 129.001 18.5977C129.001 18.5977 107.901 14.0977 85.3008 12.5977ZM45.7008 87.4977C48.0008 98.8977 44.9008 103.998 39.5008 106.298C54.8008 115.698 75.5008 123.698 95.4008 130.098C113.601 128.298 128.601 125.298 128.601 125.298C128.601 125.298 80.3008 103.198 45.7008 87.4977Z" fill="#2B7AE4"/>
<path d="M254 143.2C376.387 143.2 475.6 111.144 475.6 71.6C475.6 32.0564 376.387 0 254 0C131.614 0 32.4004 32.0564 32.4004 71.6C32.4004 111.144 131.614 143.2 254 143.2Z" fill="#ADCDF6"/>
<path d="M254 0C230.2 0 206.5 1.29999 183.9 3.79999C218.6 13.9 244.8 55.7 289.8 75.1C345 99 404.4 106.7 470.6 86.1C473.8 81.3 475.5 76.4 475.6 71.5C475.6 32 376.4 0 254 0Z" fill="#2B7AE4"/>
<path d="M84.1008 25.6992C50.8008 38.4992 32.4008 54.7992 32.3008 71.4992C32.3008 110.999 131.501 143.099 253.901 143.099C277.901 143.099 301.701 141.799 324.401 139.299C256.001 126.599 200.701 93.6992 170.701 66.5992C143.301 41.8992 117.201 27.6992 84.1008 25.6992Z" fill="#2B7AE4"/>
<path opacity="0.15" d="M73.6003 42.3C121 26.9 166.7 13.4 264.3 14.7C361.9 15.9 420.6 37.7 438.2 52.3C455.8 66.8 420.3 75.6 389.7 71.6C359.1 67.6 288.5 44.9 220.4 46.3C152.3 47.7 55.7003 54 73.6003 42.3Z" fill="white"/>
<path opacity="0.3" d="M37.9004 56.0977C34.3004 61.1977 32.5004 66.3977 32.4004 71.5977C32.4004 111.098 131.6 143.198 254 143.198C370.5 143.098 467 113.898 474.7 76.3977C423.7 103.898 317.8 120.598 212.6 112.398C110.4 104.398 64.4004 83.7977 37.9004 56.0977Z" fill="black"/>
<path d="M22.5 66.3984H88.8C101.2 66.3984 111.3 68.7984 111.3 71.6984C111.3 74.5984 101.2 76.9984 88.8 76.9984H22.5C10.1 76.9984 0 74.5984 0 71.6984C0 68.7984 10.1 66.3984 22.5 66.3984Z" fill="#ADCDF6"/>
<mask id="path-12-outside-1_1085_321" maskUnits="userSpaceOnUse" x="194.801" y="45.8984" width="125" height="50" fill="black">
<rect fill="white" x="194.801" y="45.8984" width="125" height="50"/>
<path d="M216.52 92.4984C212.72 92.4984 209.46 91.8784 206.74 90.6384C204.06 89.3984 201.96 87.5784 200.44 85.1784C198.96 82.7784 198.14 79.7984 197.98 76.2384C197.94 74.5984 197.92 72.8384 197.92 70.9584C197.92 69.0784 197.94 67.2784 197.98 65.5584C198.14 62.0784 198.98 59.1384 200.5 56.7384C202.02 54.2984 204.14 52.4584 206.86 51.2184C209.58 49.9384 212.8 49.2984 216.52 49.2984C219.16 49.2984 221.6 49.6384 223.84 50.3184C226.08 50.9584 228.04 51.9184 229.72 53.1984C231.4 54.4384 232.7 55.9584 233.62 57.7584C234.58 59.5184 235.08 61.5184 235.12 63.7584C235.16 64.1184 235.04 64.4184 234.76 64.6584C234.52 64.8984 234.22 65.0184 233.86 65.0184H225.76C225.24 65.0184 224.84 64.9184 224.56 64.7184C224.28 64.4784 224.04 64.0584 223.84 63.4584C223.28 61.3384 222.36 59.8984 221.08 59.1384C219.84 58.3384 218.3 57.9384 216.46 57.9384C214.26 57.9384 212.52 58.5584 211.24 59.7984C209.96 60.9984 209.26 63.0184 209.14 65.8584C209.02 69.1384 209.02 72.4984 209.14 75.9384C209.26 78.7784 209.96 80.8184 211.24 82.0584C212.52 83.2584 214.26 83.8584 216.46 83.8584C218.3 83.8584 219.86 83.4584 221.14 82.6584C222.42 81.8584 223.32 80.4184 223.84 78.3384C224 77.7384 224.22 77.3384 224.5 77.1384C224.82 76.8984 225.24 76.7784 225.76 76.7784H233.86C234.22 76.7784 234.52 76.8984 234.76 77.1384C235.04 77.3784 235.16 77.6784 235.12 78.0384C235.08 80.2784 234.58 82.2984 233.62 84.0984C232.7 85.8584 231.4 87.3784 229.72 88.6584C228.04 89.8984 226.08 90.8584 223.84 91.5384C221.6 92.1784 219.16 92.4984 216.52 92.4984ZM257.089 92.4984C253.089 92.4984 249.769 91.9384 247.129 90.8184C244.489 89.6584 242.489 88.1584 241.129 86.3184C239.769 84.4784 239.049 82.5184 238.969 80.4384C238.969 80.1184 239.089 79.8384 239.329 79.5984C239.609 79.3184 239.929 79.1784 240.289 79.1784H247.849C248.409 79.1784 248.829 79.2784 249.109 79.4784C249.429 79.6784 249.709 79.9384 249.949 80.2584C250.269 80.8584 250.709 81.4384 251.269 81.9984C251.869 82.5584 252.629 83.0184 253.549 83.3784C254.509 83.6984 255.689 83.8584 257.089 83.8584C259.409 83.8584 261.149 83.4984 262.309 82.7784C263.509 82.0584 264.109 81.0784 264.109 79.8384C264.109 78.9584 263.789 78.2384 263.149 77.6784C262.509 77.0784 261.469 76.5584 260.029 76.1184C258.629 75.6384 256.749 75.1584 254.389 74.6784C251.349 74.0384 248.749 73.2184 246.589 72.2184C244.469 71.1784 242.849 69.8384 241.729 68.1984C240.609 66.5184 240.049 64.4384 240.049 61.9584C240.049 59.5184 240.729 57.3384 242.089 55.4184C243.489 53.4984 245.429 51.9984 247.909 50.9184C250.389 49.8384 253.329 49.2984 256.729 49.2984C259.489 49.2984 261.909 49.6584 263.989 50.3784C266.109 51.0984 267.889 52.0584 269.329 53.2584C270.769 54.4584 271.849 55.7384 272.569 57.0984C273.329 58.4184 273.729 59.7184 273.769 60.9984C273.769 61.3184 273.649 61.6184 273.409 61.8984C273.169 62.1384 272.869 62.2584 272.509 62.2584H264.589C264.149 62.2584 263.769 62.1784 263.449 62.0184C263.129 61.8584 262.849 61.5984 262.609 61.2384C262.369 60.3584 261.729 59.5984 260.689 58.9584C259.689 58.2784 258.369 57.9384 256.729 57.9384C254.969 57.9384 253.589 58.2584 252.589 58.8984C251.629 59.4984 251.149 60.4384 251.149 61.7184C251.149 62.5184 251.409 63.2184 251.929 63.8184C252.489 64.4184 253.389 64.9384 254.629 65.3784C255.909 65.8184 257.649 66.2784 259.849 66.7584C263.489 67.4384 266.429 68.2984 268.669 69.3384C270.909 70.3384 272.549 71.6584 273.589 73.2984C274.629 74.8984 275.149 76.9184 275.149 79.3584C275.149 82.0784 274.369 84.4384 272.809 86.4384C271.289 88.3984 269.169 89.8984 266.449 90.9384C263.729 91.9784 260.609 92.4984 257.089 92.4984ZM282.655 91.8984C282.215 91.8984 281.855 91.7584 281.575 91.4784C281.295 91.1984 281.155 90.8384 281.155 90.3984V51.3984C281.155 50.9584 281.295 50.5984 281.575 50.3184C281.855 50.0384 282.215 49.8984 282.655 49.8984H299.455C302.775 49.8984 305.655 50.4184 308.095 51.4584C310.575 52.4584 312.495 53.9784 313.855 56.0184C315.255 58.0584 315.955 60.6384 315.955 63.7584C315.955 66.8384 315.255 69.3784 313.855 71.3784C312.495 73.3784 310.575 74.8584 308.095 75.8184C305.655 76.7784 302.775 77.2584 299.455 77.2584H292.315V90.3984C292.315 90.8384 292.155 91.1984 291.835 91.4784C291.555 91.7584 291.195 91.8984 290.755 91.8984H282.655ZM292.135 68.9784H299.155C300.875 68.9784 302.235 68.5384 303.235 67.6584C304.275 66.7784 304.795 65.4384 304.795 63.6384C304.795 62.1184 304.355 60.8384 303.475 59.7984C302.595 58.7584 301.155 58.2384 299.155 58.2384H292.135V68.9784Z"/>
</mask>
<path d="M216.52 92.4984C212.72 92.4984 209.46 91.8784 206.74 90.6384C204.06 89.3984 201.96 87.5784 200.44 85.1784C198.96 82.7784 198.14 79.7984 197.98 76.2384C197.94 74.5984 197.92 72.8384 197.92 70.9584C197.92 69.0784 197.94 67.2784 197.98 65.5584C198.14 62.0784 198.98 59.1384 200.5 56.7384C202.02 54.2984 204.14 52.4584 206.86 51.2184C209.58 49.9384 212.8 49.2984 216.52 49.2984C219.16 49.2984 221.6 49.6384 223.84 50.3184C226.08 50.9584 228.04 51.9184 229.72 53.1984C231.4 54.4384 232.7 55.9584 233.62 57.7584C234.58 59.5184 235.08 61.5184 235.12 63.7584C235.16 64.1184 235.04 64.4184 234.76 64.6584C234.52 64.8984 234.22 65.0184 233.86 65.0184H225.76C225.24 65.0184 224.84 64.9184 224.56 64.7184C224.28 64.4784 224.04 64.0584 223.84 63.4584C223.28 61.3384 222.36 59.8984 221.08 59.1384C219.84 58.3384 218.3 57.9384 216.46 57.9384C214.26 57.9384 212.52 58.5584 211.24 59.7984C209.96 60.9984 209.26 63.0184 209.14 65.8584C209.02 69.1384 209.02 72.4984 209.14 75.9384C209.26 78.7784 209.96 80.8184 211.24 82.0584C212.52 83.2584 214.26 83.8584 216.46 83.8584C218.3 83.8584 219.86 83.4584 221.14 82.6584C222.42 81.8584 223.32 80.4184 223.84 78.3384C224 77.7384 224.22 77.3384 224.5 77.1384C224.82 76.8984 225.24 76.7784 225.76 76.7784H233.86C234.22 76.7784 234.52 76.8984 234.76 77.1384C235.04 77.3784 235.16 77.6784 235.12 78.0384C235.08 80.2784 234.58 82.2984 233.62 84.0984C232.7 85.8584 231.4 87.3784 229.72 88.6584C228.04 89.8984 226.08 90.8584 223.84 91.5384C221.6 92.1784 219.16 92.4984 216.52 92.4984ZM257.089 92.4984C253.089 92.4984 249.769 91.9384 247.129 90.8184C244.489 89.6584 242.489 88.1584 241.129 86.3184C239.769 84.4784 239.049 82.5184 238.969 80.4384C238.969 80.1184 239.089 79.8384 239.329 79.5984C239.609 79.3184 239.929 79.1784 240.289 79.1784H247.849C248.409 79.1784 248.829 79.2784 249.109 79.4784C249.429 79.6784 249.709 79.9384 249.949 80.2584C250.269 80.8584 250.709 81.4384 251.269 81.9984C251.869 82.5584 252.629 83.0184 253.549 83.3784C254.509 83.6984 255.689 83.8584 257.089 83.8584C259.409 83.8584 261.149 83.4984 262.309 82.7784C263.509 82.0584 264.109 81.0784 264.109 79.8384C264.109 78.9584 263.789 78.2384 263.149 77.6784C262.509 77.0784 261.469 76.5584 260.029 76.1184C258.629 75.6384 256.749 75.1584 254.389 74.6784C251.349 74.0384 248.749 73.2184 246.589 72.2184C244.469 71.1784 242.849 69.8384 241.729 68.1984C240.609 66.5184 240.049 64.4384 240.049 61.9584C240.049 59.5184 240.729 57.3384 242.089 55.4184C243.489 53.4984 245.429 51.9984 247.909 50.9184C250.389 49.8384 253.329 49.2984 256.729 49.2984C259.489 49.2984 261.909 49.6584 263.989 50.3784C266.109 51.0984 267.889 52.0584 269.329 53.2584C270.769 54.4584 271.849 55.7384 272.569 57.0984C273.329 58.4184 273.729 59.7184 273.769 60.9984C273.769 61.3184 273.649 61.6184 273.409 61.8984C273.169 62.1384 272.869 62.2584 272.509 62.2584H264.589C264.149 62.2584 263.769 62.1784 263.449 62.0184C263.129 61.8584 262.849 61.5984 262.609 61.2384C262.369 60.3584 261.729 59.5984 260.689 58.9584C259.689 58.2784 258.369 57.9384 256.729 57.9384C254.969 57.9384 253.589 58.2584 252.589 58.8984C251.629 59.4984 251.149 60.4384 251.149 61.7184C251.149 62.5184 251.409 63.2184 251.929 63.8184C252.489 64.4184 253.389 64.9384 254.629 65.3784C255.909 65.8184 257.649 66.2784 259.849 66.7584C263.489 67.4384 266.429 68.2984 268.669 69.3384C270.909 70.3384 272.549 71.6584 273.589 73.2984C274.629 74.8984 275.149 76.9184 275.149 79.3584C275.149 82.0784 274.369 84.4384 272.809 86.4384C271.289 88.3984 269.169 89.8984 266.449 90.9384C263.729 91.9784 260.609 92.4984 257.089 92.4984ZM282.655 91.8984C282.215 91.8984 281.855 91.7584 281.575 91.4784C281.295 91.1984 281.155 90.8384 281.155 90.3984V51.3984C281.155 50.9584 281.295 50.5984 281.575 50.3184C281.855 50.0384 282.215 49.8984 282.655 49.8984H299.455C302.775 49.8984 305.655 50.4184 308.095 51.4584C310.575 52.4584 312.495 53.9784 313.855 56.0184C315.255 58.0584 315.955 60.6384 315.955 63.7584C315.955 66.8384 315.255 69.3784 313.855 71.3784C312.495 73.3784 310.575 74.8584 308.095 75.8184C305.655 76.7784 302.775 77.2584 299.455 77.2584H292.315V90.3984C292.315 90.8384 292.155 91.1984 291.835 91.4784C291.555 91.7584 291.195 91.8984 290.755 91.8984H282.655ZM292.135 68.9784H299.155C300.875 68.9784 302.235 68.5384 303.235 67.6584C304.275 66.7784 304.795 65.4384 304.795 63.6384C304.795 62.1184 304.355 60.8384 303.475 59.7984C302.595 58.7584 301.155 58.2384 299.155 58.2384H292.135V68.9784Z" fill="#2000D2"/>
<path d="M206.74 90.6384L205.48 93.3611L205.488 93.3647L205.495 93.3682L206.74 90.6384ZM200.44 85.1784L197.886 86.7531L197.896 86.7684L197.905 86.7836L200.44 85.1784ZM197.98 76.2384L194.981 76.3116L194.981 76.3424L194.983 76.3731L197.98 76.2384ZM197.98 65.5584L194.983 65.4207L194.981 65.4547L194.98 65.4887L197.98 65.5584ZM200.5 56.7384L203.034 58.3436L203.04 58.3342L203.046 58.3247L200.5 56.7384ZM206.86 51.2184L208.104 53.9482L208.121 53.9406L208.137 53.9329L206.86 51.2184ZM223.84 50.3184L222.968 53.1891L222.992 53.1962L223.015 53.203L223.84 50.3184ZM229.72 53.1984L227.901 55.5847L227.92 55.5986L227.938 55.6122L229.72 53.1984ZM233.62 57.7584L230.948 59.1238L230.967 59.1596L230.986 59.195L233.62 57.7584ZM235.12 63.7584L232.12 63.812L232.123 63.9513L232.138 64.0897L235.12 63.7584ZM234.76 64.6584L232.807 62.3807L232.72 62.4556L232.638 62.5371L234.76 64.6584ZM224.56 64.7184L222.607 66.9962L222.708 67.0825L222.816 67.1596L224.56 64.7184ZM223.84 63.4584L220.939 64.2246L220.963 64.3167L220.994 64.4071L223.84 63.4584ZM221.08 59.1384L219.453 61.6593L219.5 61.6895L219.548 61.718L221.08 59.1384ZM211.24 59.7984L213.291 61.987L213.309 61.9702L213.327 61.9532L211.24 59.7984ZM209.14 65.8584L206.142 65.7318L206.142 65.7403L206.142 65.7488L209.14 65.8584ZM209.14 75.9384L206.141 76.043L206.142 76.0541L206.142 76.0651L209.14 75.9384ZM211.24 82.0584L209.152 84.2132L209.17 84.2302L209.188 84.247L211.24 82.0584ZM221.14 82.6584L219.55 80.1144L219.55 80.1144L221.14 82.6584ZM223.84 78.3384L220.941 77.5655L220.935 77.5881L220.929 77.6108L223.84 78.3384ZM224.5 77.1384L226.243 79.5796L226.272 79.5594L226.3 79.5384L224.5 77.1384ZM234.76 77.1384L232.638 79.2598L232.72 79.3412L232.807 79.4162L234.76 77.1384ZM235.12 78.0384L232.138 77.7071L232.123 77.8456L232.12 77.9849L235.12 78.0384ZM233.62 84.0984L230.973 82.6867L230.967 82.6976L230.961 82.7087L233.62 84.0984ZM229.72 88.6584L231.501 91.0722L231.52 91.0586L231.538 91.0447L229.72 88.6584ZM223.84 91.5384L224.664 94.423L224.687 94.4162L224.711 94.4091L223.84 91.5384ZM216.52 89.4984C213.037 89.4984 210.223 88.9292 207.984 87.9087L205.495 93.3682C208.697 94.8277 212.403 95.4984 216.52 95.4984V89.4984ZM207.999 87.9157C205.821 86.9079 204.173 85.4661 202.974 83.5733L197.905 86.7836C199.746 89.6908 202.298 91.889 205.48 93.3611L207.999 87.9157ZM202.993 83.6038C201.843 81.7383 201.12 79.2859 200.977 76.1037L194.983 76.3731C195.16 80.311 196.076 83.8185 197.886 86.7531L202.993 83.6038ZM200.979 76.1653C200.939 74.5529 200.92 72.8175 200.92 70.9584H194.92C194.92 72.8594 194.94 74.644 194.981 76.3116L200.979 76.1653ZM200.92 70.9584C200.92 69.0996 200.939 67.3229 200.979 65.6282L194.98 65.4887C194.94 67.2339 194.92 69.0573 194.92 70.9584H200.92ZM200.976 65.6962C201.118 62.6201 201.85 60.2135 203.034 58.3436L197.965 55.1333C196.109 58.0633 195.161 61.5367 194.983 65.4207L200.976 65.6962ZM203.046 58.3247C204.241 56.4063 205.898 54.9537 208.104 53.9482L205.615 48.4887C202.381 49.9632 199.798 52.1906 197.953 55.1522L203.046 58.3247ZM208.137 53.9329C210.374 52.8801 213.139 52.2984 216.52 52.2984V46.2984C212.46 46.2984 208.785 46.9967 205.582 48.504L208.137 53.9329ZM216.52 52.2984C218.901 52.2984 221.044 52.605 222.968 53.1891L224.711 47.4478C222.155 46.6719 219.418 46.2984 216.52 46.2984V52.2984ZM223.015 53.203C224.933 53.7509 226.548 54.5535 227.901 55.5847L231.538 50.8121C229.531 49.2833 227.226 48.166 224.664 47.4339L223.015 53.203ZM227.938 55.6122C229.257 56.5857 230.247 57.7512 230.948 59.1238L236.291 56.3931C235.152 54.1656 233.542 52.2912 231.501 50.7847L227.938 55.6122ZM230.986 59.195C231.688 60.4824 232.088 61.9981 232.12 63.812L238.119 63.7049C238.072 61.0388 237.471 58.5545 236.253 56.3219L230.986 59.195ZM232.138 64.0897C232.11 63.8394 232.13 63.5008 232.274 63.1393C232.418 62.7799 232.632 62.5308 232.807 62.3807L236.712 66.9362C237.729 66.0644 238.253 64.7948 238.101 63.4271L232.138 64.0897ZM232.638 62.5371C232.791 62.3846 232.994 62.2415 233.24 62.143C233.483 62.046 233.701 62.0184 233.86 62.0184V68.0184C234.962 68.0184 236.042 67.6191 236.881 66.7798L232.638 62.5371ZM233.86 62.0184H225.76V68.0184H233.86V62.0184ZM225.76 62.0184C225.684 62.0184 225.707 62.0104 225.797 62.033C225.892 62.0566 226.083 62.1198 226.303 62.2772L222.816 67.1596C223.805 67.8658 224.916 68.0184 225.76 68.0184V62.0184ZM226.512 62.4407C226.609 62.5237 226.674 62.5981 226.714 62.6481C226.753 62.6979 226.772 62.7302 226.774 62.735C226.777 62.7402 226.769 62.7259 226.752 62.6864C226.735 62.6473 226.712 62.5895 226.686 62.5098L220.994 64.4071C221.257 65.1988 221.715 66.2317 222.607 66.9962L226.512 62.4407ZM226.74 62.6923C226.074 60.1688 224.83 57.8762 222.611 56.5589L219.548 61.718C219.889 61.9207 220.486 62.5081 220.939 64.2246L226.74 62.6923ZM222.706 56.6175C220.874 55.4357 218.734 54.9384 216.46 54.9384V60.9384C217.865 60.9384 218.805 61.2412 219.453 61.6593L222.706 56.6175ZM216.46 54.9384C213.673 54.9384 211.117 55.7408 209.152 57.6437L213.327 61.9532C213.923 61.3761 214.846 60.9384 216.46 60.9384V54.9384ZM209.188 57.6098C207.067 59.5976 206.276 62.5715 206.142 65.7318L212.137 65.9851C212.243 63.4653 212.852 62.3992 213.291 61.987L209.188 57.6098ZM206.142 65.7488C206.019 69.1035 206.019 72.5351 206.141 76.043L212.138 75.8338C212.02 72.4618 212.02 69.1734 212.138 65.9681L206.142 65.7488ZM206.142 76.0651C206.276 79.236 207.071 82.1969 209.152 84.2132L213.327 79.9037C212.848 79.44 212.243 78.3209 212.137 75.8118L206.142 76.0651ZM209.188 84.247C211.156 86.0919 213.7 86.8584 216.46 86.8584V80.8584C214.82 80.8584 213.884 80.425 213.291 79.8698L209.188 84.247ZM216.46 86.8584C218.738 86.8584 220.878 86.3597 222.73 85.2024L219.55 80.1144C218.841 80.5571 217.861 80.8584 216.46 80.8584V86.8584ZM222.73 85.2024C224.902 83.8447 226.121 81.5816 226.75 79.066L220.929 77.6108C220.518 79.2553 219.937 79.8721 219.55 80.1144L222.73 85.2024ZM226.738 79.1114C226.777 78.9679 226.793 78.9611 226.753 79.0342C226.714 79.1052 226.568 79.3475 226.243 79.5796L222.756 74.6972C221.605 75.5194 221.152 76.7735 220.941 77.5655L226.738 79.1114ZM226.3 79.5384C225.963 79.7906 225.694 79.7784 225.76 79.7784V73.7784C224.786 73.7784 223.676 74.0062 222.7 74.7384L226.3 79.5384ZM225.76 79.7784H233.86V73.7784H225.76V79.7784ZM233.86 79.7784C233.701 79.7784 233.483 79.7509 233.24 79.6539C232.994 79.5554 232.791 79.4123 232.638 79.2598L236.881 75.0171C236.042 74.1777 234.962 73.7784 233.86 73.7784V79.7784ZM232.807 79.4162C232.632 79.2661 232.418 79.0169 232.274 78.6576C232.13 78.2961 232.11 77.9575 232.138 77.7071L238.101 78.3697C238.253 77.0021 237.729 75.7325 236.712 74.8607L232.807 79.4162ZM232.12 77.9849C232.088 79.798 231.688 81.3451 230.973 82.6867L236.267 85.5102C237.471 83.2518 238.072 80.7588 238.119 78.092L232.12 77.9849ZM230.961 82.7087C230.257 84.0544 229.254 85.2414 227.901 86.2721L231.538 91.0447C233.545 89.5155 235.142 87.6625 236.278 85.4882L230.961 82.7087ZM227.938 86.2447C226.564 87.2586 224.92 88.0752 222.968 88.6678L224.711 94.4091C227.239 93.6417 229.515 92.5382 231.501 91.0722L227.938 86.2447ZM223.015 88.6539C221.076 89.2079 218.917 89.4984 216.52 89.4984V95.4984C219.402 95.4984 222.123 95.149 224.664 94.423L223.015 88.6539ZM247.129 90.8184L245.922 93.565L245.939 93.5727L245.957 93.5802L247.129 90.8184ZM241.129 86.3184L238.716 88.1016L238.716 88.1016L241.129 86.3184ZM238.969 80.4384H235.969V80.4961L235.971 80.5537L238.969 80.4384ZM239.329 79.5984L237.207 77.4771L237.207 77.4771L239.329 79.5984ZM249.109 79.4784L247.365 81.9196L247.44 81.9734L247.519 82.0224L249.109 79.4784ZM249.949 80.2584L252.596 78.8467L252.487 78.6431L252.349 78.4584L249.949 80.2584ZM251.269 81.9984L249.147 84.1198L249.184 84.1563L249.222 84.1916L251.269 81.9984ZM253.549 83.3784L252.455 86.1722L252.527 86.2002L252.6 86.2245L253.549 83.3784ZM262.309 82.7784L260.765 80.206L260.746 80.2176L260.726 80.2295L262.309 82.7784ZM263.149 77.6784L261.097 79.867L261.134 79.9023L261.173 79.9362L263.149 77.6784ZM260.029 76.1184L259.056 78.9563L259.103 78.9727L259.152 78.9875L260.029 76.1184ZM254.389 74.6784L253.77 77.6141L253.781 77.6162L253.791 77.6182L254.389 74.6784ZM246.589 72.2184L245.267 74.9118L245.298 74.9267L245.328 74.9408L246.589 72.2184ZM241.729 68.1984L239.232 69.8625L239.242 69.8765L239.251 69.8903L241.729 68.1984ZM242.089 55.4184L239.664 53.6509L239.652 53.6676L239.64 53.6844L242.089 55.4184ZM247.909 50.9184L246.711 48.1679L246.711 48.1679L247.909 50.9184ZM263.989 50.3784L263.007 53.2134L263.015 53.2163L263.024 53.2191L263.989 50.3784ZM269.329 53.2584L271.249 50.9538L271.249 50.9538L269.329 53.2584ZM272.569 57.0984L269.917 58.5021L269.942 58.5492L269.969 58.5953L272.569 57.0984ZM273.769 60.9984H276.769V60.9516L276.767 60.9047L273.769 60.9984ZM273.409 61.8984L275.53 64.0198L275.611 63.9383L275.686 63.8508L273.409 61.8984ZM263.449 62.0184L262.107 64.7017L262.107 64.7017L263.449 62.0184ZM262.609 61.2384L259.714 62.0278L259.842 62.4975L260.112 62.9025L262.609 61.2384ZM260.689 58.9584L259.002 61.4392L259.058 61.4776L259.116 61.5134L260.689 58.9584ZM252.589 58.8984L254.179 61.4424L254.192 61.4339L254.206 61.4252L252.589 58.8984ZM251.929 63.8184L249.661 65.7832L249.698 65.825L249.735 65.8654L251.929 63.8184ZM254.629 65.3784L253.625 68.2057L253.639 68.2107L253.653 68.2155L254.629 65.3784ZM259.849 66.7584L259.209 69.6895L259.253 69.6991L259.298 69.7074L259.849 66.7584ZM268.669 69.3384L267.405 72.0595L267.425 72.0688L267.446 72.0778L268.669 69.3384ZM273.589 73.2984L271.055 74.9051L271.064 74.9193L271.073 74.9334L273.589 73.2984ZM272.809 86.4384L270.443 84.5933L270.438 84.6L272.809 86.4384ZM266.449 90.9384L267.52 93.7406L266.449 90.9384ZM257.089 89.4984C253.343 89.4984 250.454 88.9705 248.3 88.0567L245.957 93.5802C249.083 94.9064 252.834 95.4984 257.089 95.4984V89.4984ZM248.335 88.0719C246.052 87.0684 244.519 85.8584 243.541 84.5353L238.716 88.1016C240.458 90.4585 242.925 92.2485 245.922 93.565L248.335 88.0719ZM243.541 84.5353C242.502 83.1296 242.021 81.7415 241.966 80.3231L235.971 80.5537C236.076 83.2953 237.035 85.8272 238.716 88.1016L243.541 84.5353ZM241.969 80.4384C241.969 80.6638 241.924 80.918 241.816 81.1702C241.709 81.4189 241.569 81.6006 241.45 81.7198L237.207 77.4771C236.442 78.2418 235.969 79.2708 235.969 80.4384H241.969ZM241.45 81.7198C241.36 81.8092 241.206 81.9333 240.981 82.0319C240.75 82.1329 240.509 82.1784 240.289 82.1784V76.1784C239.05 76.1784 237.988 76.6963 237.207 77.4771L241.45 81.7198ZM240.289 82.1784H247.849V76.1784H240.289V82.1784ZM247.849 82.1784C247.96 82.1784 247.962 82.1893 247.889 82.1719C247.814 82.1541 247.609 82.0944 247.365 81.9196L250.852 77.0372C249.834 76.3097 248.675 76.1784 247.849 76.1784V82.1784ZM247.519 82.0224C247.515 82.0205 247.515 82.0194 247.517 82.0218C247.52 82.0244 247.531 82.035 247.549 82.0584L252.349 78.4584C251.9 77.8606 251.351 77.3419 250.699 76.9344L247.519 82.0224ZM247.301 81.6702C247.781 82.5702 248.412 83.3841 249.147 84.1198L253.39 79.8771C253.006 79.4928 252.756 79.1467 252.596 78.8467L247.301 81.6702ZM249.222 84.1916C250.149 85.0571 251.252 85.7015 252.455 86.1722L254.642 80.5847C254.005 80.3354 253.588 80.0598 253.315 79.8053L249.222 84.1916ZM252.6 86.2245C253.958 86.6772 255.48 86.8584 257.089 86.8584V80.8584C255.897 80.8584 255.059 80.7197 254.497 80.5324L252.6 86.2245ZM257.089 86.8584C259.622 86.8584 262.029 86.4829 263.891 85.3274L260.726 80.2295C260.268 80.514 259.195 80.8584 257.089 80.8584V86.8584ZM263.852 85.3509C265.817 84.172 267.109 82.2846 267.109 79.8384H261.109C261.109 79.9047 261.101 79.9338 261.1 79.937C261.099 79.9386 261.101 79.936 261.1 79.937C261.099 79.9393 261.083 79.9641 261.036 80.0086C260.987 80.0546 260.903 80.1232 260.765 80.206L263.852 85.3509ZM267.109 79.8384C267.109 78.1277 266.441 76.5726 265.124 75.4207L261.173 79.9362C261.186 79.9474 261.181 79.9455 261.169 79.9284C261.155 79.9108 261.14 79.8861 261.127 79.8569C261.114 79.8278 261.109 79.8059 261.107 79.7968C261.105 79.7886 261.109 79.8007 261.109 79.8384H267.109ZM265.2 75.4898C264.067 74.427 262.512 73.7403 260.905 73.2494L259.152 78.9875C260.425 79.3765 260.95 79.7299 261.097 79.867L265.2 75.4898ZM261.001 73.2806C259.427 72.7408 257.405 72.2306 254.986 71.7386L253.791 77.6182C256.092 78.0863 257.83 78.5361 259.056 78.9563L261.001 73.2806ZM255.007 71.7428C252.125 71.1361 249.752 70.3772 247.849 69.496L245.328 74.9408C247.745 76.0597 250.572 76.9407 253.77 77.6141L255.007 71.7428ZM247.91 69.5251C246.167 68.6701 244.983 67.644 244.206 66.5066L239.251 69.8903C240.714 72.0328 242.77 73.6867 245.267 74.9118L247.91 69.5251ZM244.225 66.5343C243.501 65.4494 243.049 63.9824 243.049 61.9584H237.049C237.049 64.8945 237.716 67.5875 239.232 69.8625L244.225 66.5343ZM243.049 61.9584C243.049 60.1151 243.55 58.5459 244.537 57.1525L239.64 53.6844C237.907 56.131 237.049 58.9217 237.049 61.9584H243.049ZM244.513 57.186C245.557 55.7537 247.046 54.5661 249.106 53.6689L246.711 48.1679C243.811 49.4308 241.42 51.2432 239.664 53.6509L244.513 57.186ZM249.106 53.6689C251.125 52.79 253.638 52.2984 256.729 52.2984V46.2984C253.019 46.2984 249.652 46.8869 246.711 48.1679L249.106 53.6689ZM256.729 52.2984C259.236 52.2984 261.311 52.6264 263.007 53.2134L264.97 47.5435C262.506 46.6905 259.741 46.2984 256.729 46.2984V52.2984ZM263.024 53.2191C264.861 53.8431 266.3 54.6399 267.408 55.5631L271.249 50.9538C269.477 49.477 267.356 48.3538 264.953 47.5378L263.024 53.2191ZM267.408 55.5631C268.612 56.5662 269.415 57.5535 269.917 58.5021L275.22 55.6948C274.282 53.9234 272.925 52.3506 271.249 50.9538L267.408 55.5631ZM269.969 58.5953C270.529 59.5683 270.748 60.391 270.77 61.0921L276.767 60.9047C276.709 59.0458 276.128 57.2685 275.168 55.6015L269.969 58.5953ZM270.769 60.9984C270.769 60.773 270.813 60.5501 270.893 60.3493C270.971 60.1542 271.067 60.021 271.131 59.9461L275.686 63.8508C276.317 63.1149 276.769 62.1423 276.769 60.9984H270.769ZM271.287 59.7771C271.44 59.6246 271.643 59.4815 271.889 59.383C272.132 59.286 272.35 59.2584 272.509 59.2584V65.2584C273.611 65.2584 274.69 64.8591 275.53 64.0198L271.287 59.7771ZM272.509 59.2584H264.589V65.2584H272.509V59.2584ZM264.589 59.2584C264.509 59.2584 264.609 59.2445 264.79 59.3352L262.107 64.7017C262.928 65.1124 263.788 65.2584 264.589 65.2584V59.2584ZM264.79 59.3352C265.026 59.453 265.116 59.5907 265.105 59.5743L260.112 62.9025C260.581 63.6062 261.231 64.2639 262.107 64.7017L264.79 59.3352ZM265.503 60.4491C265.002 58.614 263.725 57.3046 262.261 56.4035L259.116 61.5134C259.424 61.7027 259.581 61.8542 259.654 61.9408C259.719 62.018 259.719 62.0442 259.714 62.0278L265.503 60.4491ZM262.375 56.4777C260.729 55.3582 258.761 54.9384 256.729 54.9384V60.9384C257.976 60.9384 258.648 61.1986 259.002 61.4392L262.375 56.4777ZM256.729 54.9384C254.655 54.9384 252.634 55.3075 250.971 56.3716L254.206 61.4252C254.543 61.2094 255.282 60.9384 256.729 60.9384V54.9384ZM250.999 56.3544C249.034 57.5825 248.149 59.5642 248.149 61.7184H254.149C254.149 61.4531 254.197 61.3847 254.18 61.4178C254.173 61.432 254.161 61.4488 254.15 61.4612C254.139 61.4726 254.143 61.4644 254.179 61.4424L250.999 56.3544ZM248.149 61.7184C248.149 63.2342 248.665 64.6333 249.661 65.7832L254.196 61.8536C254.174 61.8288 254.164 61.8128 254.16 61.8062C254.158 61.8027 254.157 61.8006 254.156 61.7998C254.156 61.7994 254.156 61.7991 254.156 61.799C254.156 61.7989 254.156 61.7989 254.156 61.7989C254.156 61.7989 254.156 61.7987 254.156 61.7985C254.156 61.7983 254.155 61.7978 254.155 61.797C254.155 61.7956 254.154 61.7925 254.153 61.7873C254.151 61.7774 254.149 61.7554 254.149 61.7184H248.149ZM249.735 65.8654C250.764 66.9675 252.176 67.6916 253.625 68.2057L255.632 62.5512C254.601 62.1853 254.213 61.8694 254.122 61.7715L249.735 65.8654ZM253.653 68.2155C255.091 68.7098 256.959 69.1986 259.209 69.6895L260.488 63.8274C258.338 63.3583 256.726 62.927 255.604 62.5414L253.653 68.2155ZM259.298 69.7074C262.801 70.3619 265.475 71.1632 267.405 72.0595L269.932 66.6174C267.382 65.4336 264.176 64.515 260.399 63.8095L259.298 69.7074ZM267.446 72.0778C269.288 72.9005 270.405 73.8798 271.055 74.9051L276.122 71.6918C274.692 69.4371 272.529 67.7764 269.891 66.599L267.446 72.0778ZM271.073 74.9334C271.72 75.9278 272.149 77.3385 272.149 79.3584H278.149C278.149 76.4984 277.537 73.8691 276.104 71.6635L271.073 74.9334ZM272.149 79.3584C272.149 81.4616 271.561 83.1598 270.443 84.5933L275.174 88.2835C277.176 85.717 278.149 82.6953 278.149 79.3584H272.149ZM270.438 84.6C269.309 86.0552 267.674 87.2579 265.377 88.1363L267.52 93.7406C270.663 92.539 273.268 90.7417 275.179 88.2769L270.438 84.6ZM265.377 88.1363C263.062 89.0213 260.317 89.4984 257.089 89.4984V95.4984C260.9 95.4984 264.395 94.9355 267.52 93.7406L265.377 88.1363ZM281.575 91.4784L283.696 89.3571L283.696 89.3571L281.575 91.4784ZM281.575 50.3184L283.696 52.4398L283.696 52.4398L281.575 50.3184ZM308.095 51.4584L306.919 54.2182L306.946 54.2298L306.973 54.2408L308.095 51.4584ZM313.855 56.0184L311.359 57.6825L311.37 57.6993L311.382 57.716L313.855 56.0184ZM313.855 71.3784L311.397 69.658L311.386 69.6747L311.374 69.6915L313.855 71.3784ZM308.095 75.8184L307.012 73.0207L307.004 73.0237L306.997 73.0267L308.095 75.8184ZM292.315 77.2584V74.2584H289.315V77.2584H292.315ZM291.835 91.4784L289.86 89.2207L289.784 89.2865L289.714 89.3571L291.835 91.4784ZM292.135 68.9784H289.135V71.9784H292.135V68.9784ZM303.235 67.6584L301.297 65.3683L301.275 65.3871L301.253 65.4063L303.235 67.6584ZM303.475 59.7984L305.765 57.8606L305.765 57.8606L303.475 59.7984ZM292.135 58.2384V55.2384H289.135V58.2384H292.135ZM282.655 88.8984C282.756 88.8984 282.931 88.9152 283.142 88.9974C283.36 89.082 283.55 89.2106 283.696 89.3571L279.454 93.5998C280.361 94.5074 281.516 94.8984 282.655 94.8984V88.8984ZM283.696 89.3571C283.843 89.5037 283.971 89.6935 284.056 89.9111C284.138 90.1225 284.155 90.2977 284.155 90.3984H278.155C278.155 91.5372 278.546 92.6921 279.454 93.5998L283.696 89.3571ZM284.155 90.3984V51.3984H278.155V90.3984H284.155ZM284.155 51.3984C284.155 51.4991 284.138 51.6743 284.056 51.8858C283.971 52.1034 283.843 52.2932 283.696 52.4398L279.454 48.1971C278.546 49.1047 278.155 50.2597 278.155 51.3984H284.155ZM283.696 52.4398C283.55 52.5863 283.36 52.7148 283.142 52.7994C282.931 52.8817 282.756 52.8984 282.655 52.8984V46.8984C281.516 46.8984 280.361 47.2895 279.454 48.1971L283.696 52.4398ZM282.655 52.8984H299.455V46.8984H282.655V52.8984ZM299.455 52.8984C302.469 52.8984 304.932 53.3712 306.919 54.2182L309.271 48.6987C306.379 47.4657 303.081 46.8984 299.455 46.8984V52.8984ZM306.973 54.2408C308.946 55.0363 310.364 56.1908 311.359 57.6825L316.351 54.3543C314.626 51.7661 312.204 49.8806 309.217 48.6761L306.973 54.2408ZM311.382 57.716C312.359 59.1399 312.955 61.086 312.955 63.7584H318.955C318.955 60.1909 318.151 56.977 316.329 54.3209L311.382 57.716ZM312.955 63.7584C312.955 66.3846 312.362 68.2803 311.397 69.658L316.313 73.0988C318.148 70.4766 318.955 67.2923 318.955 63.7584H312.955ZM311.374 69.6915C310.391 71.138 308.983 72.2577 307.012 73.0207L309.178 78.6161C312.167 77.4592 314.599 75.6189 316.336 73.0654L311.374 69.6915ZM306.997 73.0267C304.986 73.8179 302.495 74.2584 299.455 74.2584V80.2584C303.055 80.2584 306.324 79.739 309.193 78.6101L306.997 73.0267ZM299.455 74.2584H292.315V80.2584H299.455V74.2584ZM289.315 77.2584V90.3984H295.315V77.2584H289.315ZM289.315 90.3984C289.315 90.2479 289.344 90.0262 289.454 89.78C289.564 89.5312 289.718 89.3443 289.86 89.2207L293.811 93.7362C294.807 92.8643 295.315 91.6692 295.315 90.3984H289.315ZM289.714 89.3571C289.86 89.2106 290.05 89.082 290.268 88.9974C290.479 88.9152 290.654 88.8984 290.755 88.8984V94.8984C291.894 94.8984 293.049 94.5074 293.956 93.5998L289.714 89.3571ZM290.755 88.8984H282.655V94.8984H290.755V88.8984ZM292.135 71.9784H299.155V65.9784H292.135V71.9784ZM299.155 71.9784C301.387 71.9784 303.525 71.3993 305.217 69.9106L301.253 65.4063C300.945 65.6776 300.363 65.9784 299.155 65.9784V71.9784ZM305.173 69.9486C307.087 68.3288 307.795 66.0189 307.795 63.6384H301.795C301.795 64.8579 301.463 65.2281 301.297 65.3683L305.173 69.9486ZM307.795 63.6384C307.795 61.4965 307.157 59.5056 305.765 57.8606L301.185 61.7363C301.553 62.1712 301.795 62.7403 301.795 63.6384H307.795ZM305.765 57.8606C304.089 55.8799 301.615 55.2384 299.155 55.2384V61.2384C300.696 61.2384 301.101 61.6369 301.185 61.7363L305.765 57.8606ZM299.155 55.2384H292.135V61.2384H299.155V55.2384ZM289.135 58.2384V68.9784H295.135V58.2384H289.135Z" fill="white" mask="url(#path-12-outside-1_1085_321)"/>
</svg>
