<svg width="5000" height="2202" viewBox="0 0 5000 2202" fill="none" xmlns="http://www.w3.org/2000/svg">
<g clip-path="url(#clip0_1086_523)">
<path d="M5145.83 1376.69C4971.61 1357.14 4922.24 1036.97 4811.75 896.523C4713.96 772.202 4626.37 688.914 4488.52 619.759C4317.63 534.046 4248.05 696.27 4175.79 850.928C4113.52 984.259 4041.38 1116.92 3980.3 1248.82C3939.66 1336.6 3893.89 1426.3 3839.76 1510.63C3817.99 1544.53 3794.36 1592.84 3765.25 1619.36C3732.77 1648.94 3683.71 1644.91 3655.47 1674.33C3626.75 1704.25 3621.1 1775.73 3600.7 1814.97C3577.31 1859.98 3550.26 1896.76 3532.74 1944.51C3499.95 2033.85 3439.82 2128.04 3413 2216.37C3476.77 2258.32 3616.82 2223.92 3691.62 2223.34C3838.89 2222.19 3984.25 2223.99 4131.29 2229.26C4382.61 2238.28 4637.28 2226.49 4884.24 2250.25C4929.77 2254.63 5032.21 2276.46 5062.55 2235.66C5081.41 2210.29 5076.09 2127.72 5081.21 2097.24C5093.78 2022.34 5113.6 1946 5132.9 1872.45C5160.21 1768.39 5470.86 2112.82 5507 2064.19C5507 2064.19 5254.25 1388.88 5145.83 1376.72V1376.69Z" fill="#8DCDC7"/>
<path d="M4702.95 826.231C4725.97 852.826 4763.33 901.214 4772.25 943.146C4718.17 912.874 4659.04 881.316 4601.82 865.369C4510.81 839.994 4540.86 893.136 4532.62 968.601C4500.92 963.237 4489.9 924.26 4459.15 910.063C4413.92 976.984 4376.06 1057.41 4331.29 1123C4317.02 1068.91 4313.13 959.656 4260.98 930.395C4194.12 892.895 4124.59 997.123 4082.08 1042.89C4069.42 987.68 4171.5 819.422 4198.44 764.176C4238.48 682.094 4287.35 614.643 4376.85 604.542C4548.4 585.206 4712.84 752.147 4789 860.133L4702.96 826.231H4702.95Z" fill="#E5F4EF"/>
<path d="M2569.99 1748.01C2541.31 1709.3 2491.41 1678.66 2454.24 1648.14C2415.87 1616.62 2397.29 1595.06 2352.96 1629.77C2304.67 1667.58 2037.54 1727.86 2017.56 1790.79C2004.5 1831.89 2225.63 1896.19 2249.35 1928.87C2279.97 1971.07 2311.2 2032.12 2370.68 2016.5C2464.94 1991.76 2539.06 1809.22 2562.46 1728.56L2570 1748.01H2569.99Z" fill="#C8E7E4"/>
<path d="M2246.89 2014.94C2261.39 2003.01 2269.26 1986.66 2246.14 1983.28C2257.53 1976.81 2277 1965.43 2270.8 1955.25C2267.77 1950.27 2260.98 1949.76 2253.44 1949.53C2267.08 1930.69 2256.92 1917.79 2236.01 1926.31C2266.09 1886.15 2292.95 1868.46 2259.62 1826.78C2252.38 1817.73 2242.67 1805.97 2235.86 1815.7C2232.78 1794.41 2212.98 1764.44 2189.94 1788.3C2181.51 1771.75 2163.89 1769.73 2149.2 1778.23C2143.94 1761.67 2129.72 1754.82 2115.73 1766.84C2120.97 1742.58 2100.29 1712.11 2073.37 1724.71C2047.09 1661.61 2003.25 1731.09 2003.25 1731.09C2003.25 1731.09 1988.75 1670.72 1939.41 1718.83C1917.67 1673.24 1884.78 1724.79 1884.78 1724.79C1884.78 1724.79 1857.16 1701.58 1829.97 1709.73C1809.78 1715.77 1782.97 1739.42 1782.97 1739.42C1782.97 1739.42 1747.33 1692.61 1720.3 1742.05C1713.25 1706.82 1669.4 1721.96 1669.4 1721.96C1669.4 1721.96 1661.61 1678.42 1623.19 1684.6C1611.87 1686.42 1607.12 1702.78 1607.12 1702.78C1607.12 1702.78 1589.99 1700.64 1584.45 1704.23C1567.74 1715.05 1552.71 1714.71 1566.1 1741.52C1531.66 1742.58 1540.9 1755.28 1526.28 1771.48C1513.82 1785.29 1496.63 1798.87 1494.96 1824.81C1454.62 1785.78 1428.21 1835.88 1428.21 1835.88C1428.21 1835.88 1407.26 1819.32 1396.38 1821.27C1363 1827.27 1381.62 1865.45 1381.62 1865.45C1381.62 1865.45 1350.14 1884.46 1369 1902.81C1349.76 1901.65 1337.73 1913.5 1346.38 1930.55C1298.24 1932.26 1328.23 2015.8 1328.23 2015.8C1328.23 2015.8 1378.26 1971.76 1404.34 1953.05C1511.96 1875.84 1678.04 1815.65 1809.59 1819.38C2058.69 1826.42 2209.92 2026.65 2231.38 2092C2228.5 2088.04 2292.63 1995.76 2246.87 2014.93L2246.89 2014.94Z" fill="#A1A621"/>
<path d="M3339 1609.35C3310.32 1570.54 3260.44 1539.83 3223.28 1509.23C3184.92 1477.63 3166.34 1456.02 3122.02 1490.81C3073.74 1528.72 2967.82 1601.05 2947.84 1664.13C2934.79 1705.33 2994.7 1757.89 3018.41 1790.65C3049.03 1832.96 3080.25 1894.15 3139.72 1878.5C3233.96 1853.69 3308.08 1670.7 3331.46 1589.85L3339 1609.35Z" fill="#C8E7E4"/>
<path d="M3235.21 2121C3057.24 2119.98 2748.14 2111.12 2570.26 2105.43C2514.81 2103.66 2459.33 2102.38 2403.86 2101.61C2404.31 2100.59 2192.54 2012.86 2193 2011.83C2225.19 1939.98 2652.86 1586.45 2770.06 1500.66C2797.76 1480.38 2835.14 1450.57 2869.05 1464.65C2903.67 1479 2927.22 1536.66 2942.07 1568.89C2984.66 1661.37 3083.13 1744.96 3112.54 1842.4C3141.22 1937.36 3388.61 2121.88 3235.21 2121Z" fill="#A4D7D2"/>
<path d="M2742.43 1543.12C2728.67 1568.14 2699.06 1603.69 2702.28 1633.71C2724.01 1614.07 2744.99 1582.7 2776.59 1583.27C2777.4 1619.74 2784.09 1672.21 2802.81 1702.81C2831.71 1674.38 2841.18 1622.03 2874.65 1601.44C2911.3 1633.81 3026.93 1698.65 3057 1737C3020.93 1610.63 2944 1542.4 2892.27 1477.35C2835.53 1406 2747.49 1508.84 2624 1641.74L2742.42 1543.12H2742.43Z" fill="#E5F4EF"/>
<path d="M3761.73 1032.42C3721.19 998.562 3575.52 934.599 3536.83 994.869C3495.98 976.911 3475.61 988.131 3436.9 988.929C3404.74 989.598 3361.55 976.193 3338.65 1009.22C3291.19 976.402 3276.36 1015.98 3236.14 1024.65C3207.59 1030.8 3171.4 1014.59 3136.6 1021.91C3014.72 1047.52 3113.21 1102.71 3185.13 1115.47C3218.81 1121.45 3268.32 1120.78 3297.27 1136.88C3315.48 1147.01 3312.85 1159.19 3335.36 1164.04C3344.84 1166.09 3351.94 1151.69 3358.6 1153.15C3371.8 1156.03 3372.89 1173.54 3383.67 1176.57C3404.45 1182.4 3414.13 1173.12 3431.36 1174.58C3453.24 1176.42 3462.37 1189 3484.34 1197.71C3530.31 1215.93 3546.58 1188.04 3587.04 1185.8C3618.58 1184.05 3647.78 1212.88 3680.92 1215.51C3707.71 1217.63 3771.49 1213.6 3789.2 1189.51C3817.32 1151.26 3795.02 1060.24 3761.73 1032.44V1032.42Z" fill="#F6FFB0"/>
<path d="M3607.32 352.257C3667.03 306.011 3881.6 218.647 3938.61 300.967C3998.77 276.44 4028.78 291.764 4085.8 292.855C4133.17 293.768 4196.79 275.458 4230.53 320.572C4300.44 275.745 4322.29 329.802 4381.53 341.65C4423.58 350.048 4476.9 327.907 4528.16 337.9C4707.68 372.884 4562.61 448.265 4456.67 465.688C4407.05 473.855 4334.12 472.942 4291.48 494.933C4264.65 508.771 4268.53 525.404 4235.38 532.03C4221.41 534.825 4210.96 515.165 4201.14 517.156C4181.69 521.096 4180.09 545.009 4164.21 549.14C4133.61 557.102 4119.34 544.436 4093.97 546.427C4061.73 548.936 4048.29 566.128 4015.93 578.016C3948.2 602.898 3924.23 564.805 3864.64 561.751C3818.18 559.365 3775.17 598.739 3726.35 602.325C3686.89 605.229 3592.94 599.721 3566.85 566.823C3525.43 514.579 3558.28 390.253 3607.32 352.284V352.257Z" fill="#F6FFB0"/>
<path d="M3906.42 2113.46C3888.09 2089.14 3879.65 2020.25 3869.78 1983.93C3857.93 1940.3 3845.01 1902.06 3826.32 1860.38C3794.14 1788.55 3772.11 1708.99 3742.63 1633.02C3688.45 1493.42 3578.68 1348.43 3461.49 1262.65C3433.79 1242.37 3396.42 1212.58 3362.5 1226.65C3327.89 1241 3304.34 1298.63 3289.49 1330.86C3246.9 1423.32 3217.64 1522.1 3188.21 1619.51C3154.67 1730.57 3125.99 1835.76 3112.02 1950.11C3108.44 1979.43 3094.59 2047.96 3107.19 2074.72C3126.93 2116.59 3238.38 2097.42 3279.79 2098.15C3418.05 2100.58 3565.15 2093.78 3699.36 2120.23C3775.65 2135.25 3842.55 2142.74 3914 2109.64L3906.4 2113.47L3906.42 2113.46Z" fill="#C8E7E4"/>
<path d="M3489.46 1305.12C3503.23 1330.14 3532.86 1365.68 3529.65 1395.71C3507.89 1376.07 3486.89 1344.7 3455.26 1345.27C3454.45 1381.74 3447.76 1434.21 3429.02 1464.81C3400.1 1436.38 3390.62 1384.03 3357.12 1363.44C3320.43 1395.81 3255.09 1460.65 3225 1499C3261.1 1372.64 3287.72 1304.4 3339.5 1239.35C3396.28 1168 3484.41 1270.84 3608 1403.74L3489.48 1305.12H3489.46Z" fill="#E5F4EF"/>
<path d="M2379.48 1876.92C2172.44 1826.44 2007.89 1724.96 1788.11 1792.43C1693.38 1821.51 1593.96 1847.67 1502.55 1880.82C1428.44 1907.71 1328.24 1933.23 1265 1975.59C1293.21 2004.83 1360.96 2001.07 1400.27 2008.07C1469.61 2020.41 1539.77 2030.63 1608.85 2044.47C1741.85 2071.13 1868.18 2087.68 1998.28 2038.11C2147.63 1981.22 2442.52 2029.81 2596 2005.11C2557.35 1990.86 2418.41 1870.2 2379.49 1876.92H2379.48Z" fill="#B4B84D"/>
<path d="M3413.82 2079C3436.57 2134.24 3581.85 2136.26 3635.32 2146.52C3704.65 2159.83 3775.78 2171.75 3846.92 2185.02C3905.43 2195.93 3963.95 2207.75 4021.47 2222H4419C4413.96 2192.82 4410.02 2163.07 4405.23 2141.66C4392.77 2086.06 4378.59 2036.76 4357.18 1981.97C4320.28 1887.56 4297.06 1786.06 4263.93 1687.26C4222.44 1563.49 4147.76 1430.83 4058.22 1317.56C4046.64 1302.91 4034.81 1288.56 4022.76 1274.63C3991.33 1238.21 3958.46 1204.44 3924.9 1174.37C3890.44 1143.51 3844.09 1098.9 3799.34 1108.27C3753.67 1117.84 3719.46 1182.4 3698.16 1218.13C3662.3 1278.27 3632.24 1342.09 3604.53 1407.11C3585.04 1452.87 3566.72 1499.21 3548.36 1545.27C3522.79 1609.45 3498.93 1672.08 3478.29 1735.81C3476.19 1742.25 3474.15 1748.7 3472.12 1755.15C3463.68 1782.2 3455.83 1809.5 3448.71 1837.26C3440.98 1867.23 3434.11 1897.7 3428.23 1928.96C3427.25 1934.15 3425.92 1940.36 3424.4 1947.28C3420.7 1964.26 3415.92 1985.51 3412.67 2006.6C3408.39 2034.39 3406.79 2061.92 3413.82 2079Z" fill="#B5D2D0"/>
<path d="M3957.15 1232.71C3973.25 1266.04 4009.06 1315.66 4002.96 1351.21C3976.24 1322.57 3951.25 1279.95 3910.51 1273.51C3907.07 1317.39 3895.04 1379.26 3868.9 1412C3833.53 1371.13 3824.74 1305.76 3782.96 1273.34C3733.62 1304.19 3645.26 1367.79 3604 1407.34C3619.18 1282.85 3697.47 1186.35 3768.39 1119.43C3846.15 1046.03 3994.12 1224.76 4030 1279.88L3957.17 1232.69L3957.15 1232.71Z" fill="#E5F4EF"/>
<path d="M2794 2162.78C2856.59 2187.54 3002.29 2207.6 3154.84 2222.34C3157.14 2222.56 3159.43 2222.78 3161.73 2223H3161.74C3213.09 2222.6 3242.59 2222.34 3242.59 2222.34H3845.63C3865.26 2218.49 3884.45 2214.47 3902.99 2210.43C4002.88 2188.71 4304.36 2184.51 4405.71 2202.79C4407.49 2203.11 4408.2 2202.57 4407.95 2201.24C4407.18 2196.9 4396.12 2184.13 4379.39 2166.3C4363.28 2149.12 4341.92 2127.25 4319.43 2103.67C4278.13 2060.37 4233.09 2011.34 4209.88 1975.18C4208.77 1973.45 4207.72 1971.75 4206.71 1970.08C4204.1 1965.74 4199.92 1961.02 4194.34 1955.97C4159.16 1924.13 4068.26 1879.54 3963.33 1843.22H3963.32C3946.55 1837.42 3929.42 1831.83 3912.1 1826.54C3906.05 1824.68 3899.98 1822.87 3893.89 1821.08C3835.27 1804 3775.17 1790.6 3720.1 1784.18C3701.18 1781.97 3682.84 1780.58 3665.38 1780.15C3663.41 1780.1 3661.46 1780.06 3659.51 1780.04C3642.31 1779.82 3625.98 1780.56 3610.78 1782.41C3601.57 1783.51 3592.78 1785.03 3584.47 1786.99H3584.46C3583.59 1787.18 3582.72 1787.39 3581.86 1787.61C3563.71 1792.1 3547.93 1798.72 3535.11 1807.75C3495.99 1835.35 3465.79 1850.31 3438.46 1861.36C3428.99 1865.19 3419.87 1868.54 3410.83 1871.81C3408.43 1872.67 3406.03 1873.53 3403.64 1874.38C3393.34 1878.07 3383.09 1881.74 3372.49 1885.95C3343.99 1897.25 3313.04 1912.37 3272.3 1941.9C3267.9 1945.1 3263.14 1948.32 3258.05 1951.57C3245.92 1959.33 3231.92 1967.27 3216.5 1975.32H3216.49C3214.25 1976.48 3211.98 1977.65 3209.68 1978.83C3196.86 1985.36 3183.16 1991.95 3168.82 1998.57C3167.2 1999.32 3165.56 2000.08 3163.92 2000.83C3151.62 2006.45 3138.89 2012.09 3125.86 2017.71C3122.36 2019.22 3118.82 2020.74 3115.28 2022.25C3056.68 2047.23 2993.16 2071.82 2938.02 2093.87C2935.04 2095.06 2932.09 2096.24 2929.16 2097.42C2914.25 2103.4 2900.04 2109.18 2886.79 2114.73H2886.78C2839.21 2134.59 2804.05 2151.3 2794.04 2162.78H2794Z" fill="#BFA473"/>
<path d="M3365 2162.78C3427.59 2187.54 3573.29 2207.6 3725.84 2222.34C3728.14 2222.56 3730.43 2222.78 3732.73 2223H3732.74C3784.09 2222.6 3813.59 2222.34 3813.59 2222.34H4416.63C4436.26 2218.49 4455.45 2214.47 4473.99 2210.43C4573.88 2188.71 4875.36 2184.51 4976.71 2202.79C4978.49 2203.11 4979.2 2202.57 4978.95 2201.24C4978.18 2196.9 4967.12 2184.13 4950.39 2166.3C4934.28 2149.12 4912.92 2127.25 4890.43 2103.67C4849.13 2060.37 4804.09 2011.34 4780.88 1975.18C4779.77 1973.45 4778.72 1971.75 4777.71 1970.08C4775.1 1965.74 4770.92 1961.02 4765.34 1955.97C4730.16 1924.13 4639.26 1879.54 4534.33 1843.22H4534.32C4517.55 1837.42 4500.42 1831.83 4483.1 1826.54C4477.05 1824.68 4470.98 1822.87 4464.89 1821.08C4406.27 1804 4346.17 1790.6 4291.1 1784.18C4272.18 1781.97 4253.84 1780.58 4236.38 1780.15C4234.41 1780.1 4232.46 1780.06 4230.51 1780.04C4213.31 1779.82 4196.98 1780.56 4181.78 1782.41C4172.57 1783.51 4163.78 1785.03 4155.47 1786.99H4155.46C4154.59 1787.18 4153.72 1787.39 4152.86 1787.61C4134.71 1792.1 4118.93 1798.72 4106.11 1807.75C4066.99 1835.35 4036.79 1850.31 4009.46 1861.36C3999.99 1865.19 3990.87 1868.54 3981.83 1871.81C3979.43 1872.67 3977.03 1873.53 3974.64 1874.38C3964.34 1878.07 3954.09 1881.74 3943.49 1885.95C3914.99 1897.25 3884.04 1912.37 3843.3 1941.9C3838.9 1945.1 3834.14 1948.32 3829.05 1951.57C3816.92 1959.33 3802.92 1967.27 3787.5 1975.32H3787.49C3785.25 1976.48 3782.98 1977.65 3780.68 1978.83C3767.86 1985.36 3754.16 1991.95 3739.82 1998.57C3738.2 1999.32 3736.56 2000.08 3734.92 2000.83C3722.62 2006.45 3709.89 2012.09 3696.86 2017.71C3693.36 2019.22 3689.82 2020.74 3686.28 2022.25C3627.68 2047.23 3564.16 2071.82 3509.02 2093.87C3506.04 2095.06 3503.09 2096.24 3500.16 2097.42C3485.25 2103.4 3471.04 2109.18 3457.79 2114.73H3457.78C3410.21 2134.59 3375.05 2151.3 3365.04 2162.78H3365Z" fill="#BFA473"/>
<path d="M130 2144.58C316.727 2106.18 506.059 2082.14 695.013 2095.05C896.127 2108.79 1095.7 2114.27 1288.8 2179.41C1313.23 2187.65 1342.73 2206.87 1371.59 2222H1531.97C1564.02 2211.45 1596.16 2200.52 1624.9 2198.78C1692.59 2194.7 1753.52 2185.14 1819.9 2173.08C1846.75 2168.22 1876.15 2168.55 1902.1 2161.4C1941.78 2150.47 1953.49 2154.66 1917.13 2125.07C1895.55 2107.5 1856.8 2100.73 1826.69 2093.86C1815.43 2084.29 1801.6 2076.13 1786.17 2069.03C1760.59 2057.25 1730.64 2048.38 1700.83 2040.79C1692.95 2038.79 1685.08 2036.88 1677.3 2035.02C1669.69 2033.2 1662.16 2031.44 1654.8 2029.71C1653.8 2029.47 1652.8 2029.23 1651.81 2029C1651.08 2028.83 1650.36 2028.66 1649.64 2028.48C1646.2 2027.67 1642.8 2026.86 1639.45 2026.05C1622.12 2021.88 1606.12 2017.75 1592.62 2013.26C1590.11 2012.43 1587.61 2011.6 1585.11 2010.8C1583.92 2010.4 1582.75 2010.02 1581.56 2009.64C1579.18 2008.86 1576.81 2008.1 1574.44 2007.34C1574.43 2007.35 1574.43 2007.34 1574.43 2007.34C1513.35 1987.89 1454.25 1973.42 1391.56 1963.13C1382.15 1961.57 1372.66 1960.12 1363.08 1958.75C1348.81 1956.73 1334.55 1955.01 1320.28 1953.6C1315.57 1953.12 1310.87 1952.68 1306.16 1952.28C1297.67 1951.54 1289.17 1950.91 1280.68 1950.38C1278.42 1950.23 1276.16 1950.09 1273.9 1949.96C1271.54 1949.83 1269.18 1949.7 1266.82 1949.58C1265.1 1949.49 1263.4 1949.41 1261.68 1949.33C1255.56 1949.04 1249.43 1948.8 1243.31 1948.61C1241.57 1948.55 1239.84 1948.5 1238.11 1948.45C1237.1 1948.43 1236.08 1948.4 1235.08 1948.38C1232.93 1948.32 1230.78 1948.27 1228.63 1948.23C1224.07 1948.14 1219.52 1948.08 1214.96 1948.04C1214.24 1948.04 1213.51 1948.04 1212.79 1948.04C1211.73 1948.02 1210.69 1948.02 1209.64 1948.02C1203.07 1947.98 1196.51 1948 1189.95 1948.08C1187.89 1948.08 1185.82 1948.12 1183.77 1948.15C1165.2 1948.42 1146.66 1949.08 1128.14 1950.06C1123.74 1950.29 1119.34 1950.54 1114.95 1950.82C1093.31 1952.13 1071.7 1953.89 1050.17 1956.01C1042.4 1956.78 1034.65 1957.59 1026.91 1958.43H1026.88C1026.72 1958.45 1026.56 1958.47 1026.4 1958.48C1023.52 1958.81 1020.62 1959.13 1017.74 1959.46H1017.73C1015.29 1959.74 1012.85 1960.03 1010.41 1960.31C1008.91 1960.49 1007.42 1960.67 1005.93 1960.85C999.83 1961.58 993.73 1962.34 987.64 1963.12C986.148 1963.31 984.667 1963.5 983.185 1963.69C976.789 1964.53 970.402 1965.37 964.026 1966.25C962.545 1966.45 961.073 1966.66 959.602 1966.87C959.581 1966.87 959.571 1966.87 959.561 1966.87C956.322 1967.31 953.072 1967.77 949.843 1968.23C946.9 1968.66 943.978 1969.08 941.035 1969.51C939.574 1969.73 938.113 1969.94 936.652 1970.16C935.385 1970.34 934.128 1970.53 932.861 1970.72C929.642 1971.2 926.341 1971.69 922.959 1972.22C921.529 1972.44 920.078 1972.67 918.617 1972.9C831.415 1986.63 697.445 2013.79 564.18 2042.67H564.169C365.089 2085.82 167.624 2132.8 130.072 2144.58H130Z" fill="#DDBE69"/>
<path d="M-39 2222H1389C1362.28 2209.51 1270.79 2149.6 1232.37 2136.06C1149.09 2106.71 1060.73 2078.12 973.1 2064.71C834.593 2043.5 702.148 2041.39 564.622 2042.12H564.611C544.016 2042.23 523.307 2042.4 502.436 2042.58C320.437 2044.14 108.164 2108.17 -39 2222Z" fill="#B4B84D"/>
<path d="M-497 2222H931C904.282 2209.51 812.792 2149.6 774.371 2136.06C691.089 2106.71 602.726 2078.12 515.1 2064.71C376.593 2043.5 244.148 2041.39 106.622 2042.12H106.611C86.0155 2042.23 65.3073 2042.4 44.4357 2042.58C-137.563 2044.14 -349.836 2108.17 -497 2222Z" fill="#B4B84D"/>
<path d="M2462.1 1279.42C2443.78 1385.85 2566.86 1375.52 2579.52 1367.19C2579.52 1367.19 2622.98 1433.33 2685.92 1404.9C2695.97 1400.34 2700.12 1388.22 2701.43 1375.16C2701.48 1375.17 2701.52 1375.18 2701.57 1375.2C2739.47 1385.1 2776.65 1354.98 2784.57 1321.45C2789.7 1299.69 2781.09 1281.69 2761.87 1272.73C2776.56 1266.22 2787.26 1253.24 2791.78 1236.07C2797.74 1213.4 2791.46 1187.78 2775.79 1170.83C2765.47 1159.67 2753.76 1152.32 2740.95 1148.98C2712.77 1141.61 2683.31 1154.18 2657.29 1165.25C2649.83 1168.41 2642.73 1171.44 2635.96 1173.88C2628.78 1135.73 2598.73 1114.82 2572.35 1107.93C2548.08 1101.59 2524.23 1105.67 2508.58 1118.87C2499.15 1126.8 2488.57 1141.57 2489.8 1167.5C2488.78 1167.1 2446.81 1159.29 2435.03 1212.92C2429.83 1236.59 2433.2 1267 2462.08 1279.43L2462.1 1279.42Z" fill="#F6FFB0"/>
<path d="M935.052 1252.31C930.193 1166.26 836.438 1195.59 828.097 1204.26C828.097 1204.26 782.475 1160.26 738.671 1193.29C731.688 1198.58 730.626 1208.74 731.953 1219.14C731.912 1219.14 731.882 1219.14 731.841 1219.14C700.623 1217.98 677.133 1247.87 677.001 1275.35C676.909 1293.19 686.831 1305.73 703.359 1309.37C693.11 1316.98 687.128 1328.94 686.689 1343.09C686.127 1361.77 695.601 1380.64 710.811 1391.14C720.816 1398.04 731.239 1401.74 741.784 1402.13C764.998 1402.99 785.64 1388.12 803.862 1374.99C809.089 1371.24 814.071 1367.65 818.889 1364.58C831.303 1393.05 858.396 1404.15 880.13 1404.95C900.129 1405.69 917.912 1398.39 927.712 1385.4C933.623 1377.6 939.197 1364.27 933.592 1344.28C934.45 1344.41 968.465 1343.24 967.995 1299.43C967.791 1280.09 959.726 1256.99 935.052 1252.31Z" fill="#F6FFB0"/>
<path d="M1491 2222.34H3154.26C3156.56 2222.56 3158.85 2222.78 3161.15 2223H3161.16C3212.5 2222.6 3242 2222.34 3242 2222.34C3238.71 2215.03 3195.33 2191.89 3186.66 2188.8L3117.58 2168C3081.65 2155.23 3046.5 2140.99 3011.64 2126.15H3011.63C3004.71 2123.21 2997.82 2120.25 2990.92 2117.26C2973.07 2109.55 2955.26 2101.72 2937.44 2093.9C2935.3 2092.96 2933.14 2092.01 2931 2091.07C2899.64 2077.31 2868.21 2063.63 2836.33 2050.67C2831.47 2048.69 2826.59 2046.72 2821.69 2044.78C2793.29 2033.48 2764.49 2022.82 2735.04 2013.25C2714.09 2006.45 2692.91 2000.53 2671.57 1995.29C2666.58 1994.06 2661.57 1992.87 2656.56 1991.72C2617.62 1982.73 2578.27 1975.81 2539 1969.66C2509.58 1965.05 2480.19 1960.87 2451.07 1956.58C2438.96 1954.8 2426.88 1953 2414.86 1951.14C2414.73 1951.12 2414.61 1951.1 2414.49 1951.08C2411.84 1950.67 2409.18 1950.25 2406.55 1949.83C2406.24 1949.79 2405.92 1949.74 2405.62 1949.69C2393.92 1947.84 2382.26 1946.15 2370.64 1944.61C2368 1944.25 2365.36 1943.91 2362.72 1943.58C2344.23 1941.22 2325.83 1939.26 2307.51 1937.7C2291.54 1936.33 2275.63 1935.25 2259.79 1934.49C2259.56 1934.47 2259.34 1934.46 2259.12 1934.46C2256.85 1934.34 2254.61 1934.24 2252.35 1934.15C2203.96 1932.07 2156.11 1932.81 2108.58 1936.39C2055 1940.43 2001.83 1948.08 1948.77 1959.43C1944.2 1960.4 1939.63 1961.41 1935.05 1962.45C1865.4 1978.17 1795.89 2000.25 1725.82 2028.85C1717.45 2032.26 1709.1 2036.29 1700.77 2040.83C1692.11 2045.56 1683.46 2050.84 1674.87 2056.59C1668.65 2060.73 1662.46 2065.12 1656.29 2069.71C1651.39 2073.35 1646.51 2077.12 1641.65 2081.01C1586.88 2124.67 1535.03 2181.52 1491.02 2222.34H1491Z" fill="#A1A621"/>
<path d="M706.031 1646.25C701.121 1565.22 607.376 1592.78 599.046 1600.94C599.046 1600.94 553.403 1559.48 509.619 1590.55C502.636 1595.53 501.585 1605.09 502.922 1614.89C502.881 1614.89 502.851 1614.89 502.8 1614.89C471.582 1613.77 448.113 1641.9 448 1667.77C447.919 1684.57 457.862 1696.38 474.39 1699.83C464.15 1706.99 458.168 1718.24 457.739 1731.57C457.188 1749.17 466.672 1766.93 481.893 1776.83C491.907 1783.34 502.33 1786.82 512.876 1787.2C536.09 1788.03 556.721 1774.04 574.933 1761.69C580.16 1758.16 585.132 1754.79 589.95 1751.89C602.384 1778.72 629.488 1789.17 651.212 1789.95C671.21 1790.66 688.993 1783.8 698.773 1771.59C704.674 1764.24 710.237 1751.68 704.622 1732.87C705.48 1732.99 739.495 1731.91 738.995 1690.67C738.78 1672.46 730.695 1650.71 706.021 1646.27L706.031 1646.25Z" fill="#F6FFB0"/>
<path d="M1588.63 1462.33C1610.37 1505.33 1562.31 1544.44 1525.29 1525.38C1509.14 1583.14 1455.76 1548.25 1455.76 1548.25C1455.76 1548.25 1454.1 1569.45 1445.66 1578.44C1419.28 1606.56 1358.1 1639.94 1332.11 1553.59C1310.15 1587.76 1244.26 1575.48 1218.57 1551.66C1203.76 1537.92 1204.67 1506.83 1204.67 1506.83C1204.67 1506.83 1149.12 1494.93 1166.62 1461.87C1137.36 1448.13 1110.51 1422.34 1133.9 1378.84C1181.48 1290.37 1271.42 1359.18 1271.42 1359.18C1271.42 1359.18 1316.57 1265.87 1381.24 1341.7C1396.88 1316.85 1441.78 1314.32 1443.86 1350.69C1461.99 1321.28 1536.34 1315.71 1536.15 1357.05C1586.91 1319.69 1668.25 1382.16 1588.63 1462.33Z" fill="#F6FFB0"/>
<path d="M4002.61 1513.29C4035.41 1559.81 3923.25 1547.34 3899.98 1525.26C3868.28 1551.63 3833.93 1546.28 3799.6 1529.89C3766.97 1514.3 3691.63 1508.95 3697.3 1491.53C3714.24 1439.46 3844.42 1454.61 3897.94 1456.46C3954.86 1458.43 4039.13 1485.49 4018.94 1514.41C4016.57 1517.8 4002.6 1513.29 4002.6 1513.29H4002.61Z" fill="#F6FFB0"/>
<path d="M3117.5 2033C3120.66 2030.1 3124.54 2027.86 3128.67 2025.91C3128.78 2025.79 3128.89 2025.67 3129 2025.55C3127.48 2022.04 3126.03 2018.32 3124.59 2014.6C3122.9 2010.22 3121.21 2005.78 3119.33 2001.34C3118.39 1999.11 3117.41 1996.89 3116.29 1994.66C3115.73 1993.54 3115.14 1992.43 3114.46 1991.31C3113.79 1990.22 3113.02 1989.06 3112.09 1988L3108 1991.17C3108.91 1992.78 3109.59 1994.85 3110.19 1996.97C3110.79 1999.09 3111.3 2001.3 3111.76 2003.52C3112.69 2007.99 3113.47 2012.55 3114.3 2017.16C3115.13 2021.78 3115.94 2026.43 3117.09 2031.28C3117.23 2031.85 3117.36 2032.42 3117.51 2033H3117.5Z" fill="#745C42"/>
<path d="M3054.31 1957C3062.52 1956.26 3073.51 1954.46 3081.45 1950.34C3075.09 1967.34 3056.83 1974.18 3041.55 1978.62C3056.7 1985.42 3075.16 1992 3085.9 1981.83C3074.47 1999.63 3057.83 2020.71 3033 2022.6C3055.68 2025.57 3107.74 2025.97 3114.61 2001.38C3133.3 2014.22 3163.8 1994 3170 1973.28C3153.38 1979.44 3133.68 1982.56 3120.51 1968.81C3135.4 1968 3139.65 1961.45 3147.63 1947C3136.71 1950.49 3117.34 1953.99 3104.36 1941.53C3114.22 1939.25 3120.44 1940.54 3126.61 1931.91C3107.35 1930.12 3084.38 1914.2 3074.86 1895C3077.35 1895.03 3070.33 1944.25 3054.31 1957.01V1957Z" fill="#8C8630"/>
<path d="M3234 2025.78C3234.35 2022.42 3234.77 2019.14 3235.19 2015.89C3235.8 2011.17 3236.43 2006.52 3236.9 2001.92C3237.13 1999.62 3237.32 1997.34 3237.41 1995.09C3237.49 1992.86 3237.48 1990.64 3237.11 1988.82L3241.78 1987C3242.32 1988.31 3242.68 1989.66 3242.96 1990.93C3243.25 1992.21 3243.46 1993.47 3243.65 1994.72C3244.01 1997.21 3244.25 1999.67 3244.45 2002.1C3244.84 2006.97 3245.07 2011.78 3245.33 2016.53C3245.52 2020.07 3245.72 2023.59 3246 2027C3241.87 2026.38 3238.06 2025.86 3234 2025.77V2025.78Z" fill="#745C42"/>
<path d="M3196.46 1941.04C3204.46 1942.77 3215.43 1944.34 3224.23 1942.77C3212.95 1957.1 3193.55 1958.19 3177.69 1957.88C3189.93 1968.88 3205.39 1980.66 3218.71 1974.14C3202.36 1987.72 3180.09 2002.87 3156 1997.28C3176.56 2006.87 3225.73 2022.75 3239.85 2001.34C3253.58 2019.15 3288.71 2008.94 3301 1991.02C3283.35 1991.95 3263.74 1989.07 3255.5 1972.02C3269.86 1975.69 3275.92 1970.7 3287.94 1959.28C3276.53 1959.36 3257.1 1956.92 3248.65 1941.18C3258.7 1941.94 3264.17 1945.02 3272.69 1938.63C3255 1931.19 3238.18 1909.16 3235.12 1888C3237.46 1888.77 3215.58 1933.64 3196.46 1941.04Z" fill="#8C8630"/>
<path d="M3400 1905.98C3403.83 1904.19 3408.13 1903.22 3412.59 1902.61C3412.73 1902.53 3412.86 1902.45 3413 1902.37C3412.64 1898.62 3412.41 1894.69 3412.19 1890.75C3411.93 1886.13 3411.69 1881.44 3411.29 1876.7C3411.09 1874.33 3410.83 1871.94 3410.46 1869.51C3410.27 1868.3 3410.05 1867.07 3409.76 1865.83C3409.47 1864.59 3409.1 1863.27 3408.55 1862L3403.76 1863.77C3404.13 1865.55 3404.13 1867.71 3404.06 1869.88C3403.97 1872.06 3403.78 1874.28 3403.54 1876.52C3403.06 1881.01 3402.42 1885.53 3401.78 1890.12C3401.16 1894.72 3400.52 1899.35 3400.12 1904.25C3400.08 1904.82 3400.04 1905.41 3400 1906V1905.98Z" fill="#745C42"/>
<path d="M3362.74 1815.61C3370.79 1817.33 3381.84 1818.88 3390.7 1817.33C3379.34 1831.55 3359.81 1832.62 3343.84 1832.31C3356.17 1843.23 3371.73 1854.91 3385.14 1848.45C3368.68 1861.92 3346.26 1876.94 3322 1871.4C3342.7 1880.91 3392.21 1896.66 3406.43 1875.43C3420.25 1893.1 3455.63 1882.97 3468 1865.19C3450.23 1866.11 3430.48 1863.25 3422.19 1846.34C3436.65 1849.98 3442.75 1845.03 3454.85 1833.7C3443.36 1833.78 3423.8 1831.37 3415.29 1815.75C3425.41 1816.51 3430.92 1819.56 3439.5 1813.22C3421.69 1805.84 3404.75 1783.99 3401.66 1763C3404.02 1763.77 3381.99 1808.27 3362.74 1815.61Z" fill="#8C8630"/>
<path d="M3657.63 1814.63C3657.08 1814.73 3656.54 1814.86 3656 1815C3656.37 1811.33 3656.84 1807.8 3657.3 1804.27C3657.91 1799.66 3658.55 1795.11 3659.02 1790.6C3659.25 1788.35 3659.44 1786.12 3659.53 1783.92C3659.6 1781.74 3659.6 1779.57 3659.23 1777.78L3663.92 1776C3664.45 1777.28 3664.82 1778.6 3665.1 1779.85C3665.38 1781.1 3665.6 1782.33 3665.79 1783.55C3666.15 1786 3666.39 1788.4 3666.59 1790.78C3666.98 1795.55 3667.22 1800.26 3667.47 1804.9C3667.63 1807.79 3667.79 1810.65 3668 1813.46C3664.73 1813.49 3661.44 1813.89 3657.62 1814.62L3657.63 1814.63Z" fill="#745C42"/>
<path d="M3618.74 1730.04C3626.79 1731.77 3637.84 1733.34 3646.7 1731.77C3635.34 1746.1 3615.81 1747.19 3599.84 1746.88C3612.17 1757.88 3627.73 1769.65 3641.14 1763.14C3624.68 1776.72 3602.26 1791.87 3578 1786.28C3598.7 1795.87 3648.21 1811.75 3662.43 1790.34C3676.25 1808.15 3711.63 1797.94 3724 1780.02C3706.23 1780.95 3686.48 1778.07 3678.19 1761.02C3692.65 1764.69 3698.75 1759.7 3710.85 1748.28C3699.36 1748.36 3679.8 1745.92 3671.29 1730.18C3681.41 1730.94 3686.92 1734.02 3695.5 1727.63C3677.69 1720.19 3660.75 1698.16 3657.66 1677C3660.02 1677.77 3637.99 1722.64 3618.74 1730.04Z" fill="#8C8630"/>
<path d="M3823.49 2065C3826.85 2061.41 3831.1 2058.53 3835.66 2055.96C3835.77 2055.81 3835.89 2055.66 3836 2055.51C3833.95 2051.63 3831.98 2047.5 3830.01 2043.36C3827.69 2038.5 3825.37 2033.56 3822.84 2028.64C3821.58 2026.18 3820.26 2023.71 3818.79 2021.26C3818.05 2020.04 3817.27 2018.82 3816.41 2017.6C3815.55 2016.39 3814.57 2015.13 3813.42 2014L3809 2017.97C3810.18 2019.72 3811.14 2022.05 3812.01 2024.41C3812.88 2026.8 3813.63 2029.27 3814.36 2031.78C3815.81 2036.81 3817.11 2041.96 3818.45 2047.16C3819.8 2052.37 3821.14 2057.62 3822.86 2063.07C3823.07 2063.71 3823.28 2064.35 3823.5 2065H3823.49Z" fill="#745C42"/>
<path d="M3743.07 1982.23C3752.61 1980.66 3765.32 1977.62 3774.25 1972.14C3768.33 1992.55 3747.57 2002.1 3730.06 2008.59C3748.41 2015.25 3770.62 2021.36 3782.29 2008.56C3770.49 2030.34 3752.89 2056.39 3724 2060.72C3750.82 2062.26 3811.81 2058.28 3817.66 2028.96C3840.7 2042.38 3874.59 2016.13 3880 1991.39C3861.1 2000.01 3838.31 2005.34 3821.64 1990.39C3839.01 1988.18 3843.4 1980.15 3851.45 1962.58C3838.99 1967.59 3816.62 1973.33 3800.3 1959.87C3811.65 1956.37 3819.03 1957.34 3825.49 1946.73C3802.77 1946.28 3774.45 1929.64 3761.6 1908C3764.51 1907.82 3760.69 1965.95 3743.07 1982.23Z" fill="#8C8630"/>
<path d="M3940.82 1850.94C3940.22 1853.34 3939.53 1855.65 3938.79 1857.94C3937.33 1862.5 3935.74 1866.94 3934.2 1871.33C3934 1871.89 3933.81 1872.44 3933.62 1873C3933.08 1872.7 3932.53 1872.41 3931.97 1872.14C3929.35 1870.85 3926.69 1869.65 3924 1868.52C3924.35 1867.9 3924.72 1867.29 3925.07 1866.67C3927.41 1862.66 3929.73 1858.71 3931.89 1854.74C3932.97 1852.76 3934 1850.77 3934.91 1848.79C3935.82 1846.81 3936.65 1844.8 3936.99 1843L3942 1843.23C3942 1844.63 3941.83 1846 3941.62 1847.26C3941.4 1848.53 3941.13 1849.75 3940.83 1850.95L3940.82 1850.94Z" fill="#745C42"/>
<path d="M3919.21 1783.77C3925.96 1788.42 3935.54 1794.05 3944.35 1795.98C3928.1 1804.79 3909.62 1798.34 3895 1791.98C3901.97 1806.75 3911.62 1823.44 3926.62 1822.6C3905.97 1828.77 3879.16 1834.11 3859 1819.77C3874.28 1836.43 3913.66 1869.8 3935.38 1855.61C3941 1877.18 3977.78 1881.29 3996.41 1869.57C3979.62 1863.67 3962.53 1853.52 3961.71 1834.75C3973.6 1843.61 3981.23 1841.36 3997 1835.51C3986.35 1831.21 3969.25 1821.54 3967.72 1803.88C3976.76 1808.43 3980.62 1813.34 3991.11 1810.76C3977.64 1797.17 3970.82 1770.54 3976.46 1750C3978.33 1751.61 3939.96 1784.31 3919.2 1783.77H3919.21Z" fill="#8C8630"/>
<path d="M3488 2222H4549C4502.42 2202.47 4424.38 2193.1 4407.41 2182.79C4398.54 2177.4 4389.06 2171.83 4379.13 2166.14C4340.65 2144.11 4295.45 2120.55 4252.74 2100.78C4229.1 2089.82 4206.21 2080.02 4185.65 2072.27C4179.52 2069.96 4173.28 2067.8 4166.94 2065.77C4103.1 2045.28 4029.86 2038.83 3961.63 2041.61C3946.55 2042.22 3931.72 2043.29 3917.28 2044.75C3899.61 2046.55 3881.07 2049.17 3861.93 2052.61C3852.54 2054.3 3842.99 2056.17 3833.34 2058.25H3833.33C3829.64 2059.04 3825.96 2059.86 3822.24 2060.71C3760.06 2074.91 3694.13 2096.89 3633.64 2125.77C3622.32 2131.17 3611.18 2136.83 3600.3 2142.72C3597.7 2144.12 3595.14 2145.52 3592.58 2146.96C3553.17 2168.91 3517.33 2194.03 3488.01 2222H3488Z" fill="#B4B84D"/>
<path d="M4059 2222H5120C5073.42 2202.47 4995.38 2193.1 4978.41 2182.79C4969.54 2177.4 4960.06 2171.83 4950.13 2166.14C4911.65 2144.11 4866.45 2120.55 4823.74 2100.78C4800.1 2089.82 4777.21 2080.02 4756.65 2072.27C4750.52 2069.96 4744.28 2067.8 4737.94 2065.77C4674.1 2045.28 4600.86 2038.83 4532.63 2041.61C4517.55 2042.22 4502.72 2043.29 4488.28 2044.75C4470.61 2046.55 4452.07 2049.17 4432.93 2052.61C4423.54 2054.3 4413.99 2056.17 4404.34 2058.25H4404.33C4400.64 2059.04 4396.96 2059.86 4393.24 2060.71C4331.06 2074.91 4265.13 2096.89 4204.64 2125.77C4193.32 2131.17 4182.18 2136.83 4171.3 2142.72C4168.7 2144.12 4166.14 2145.52 4163.58 2146.96C4124.17 2168.91 4088.33 2194.03 4059.01 2222H4059Z" fill="#B4B84D"/>
<path d="M3585 2149C3589.42 2146.92 3594.38 2145.81 3599.53 2145.1C3599.68 2145 3599.84 2144.91 3600 2144.82C3599.59 2140.46 3599.32 2135.92 3599.06 2131.34C3598.76 2125.98 3598.49 2120.56 3598.02 2115.05C3597.78 2112.31 3597.5 2109.53 3597.07 2106.71C3596.85 2105.31 3596.6 2103.89 3596.26 2102.44C3595.93 2101.01 3595.5 2099.48 3594.86 2098L3589.33 2100.05C3589.75 2102.11 3589.76 2104.62 3589.67 2107.13C3589.58 2109.65 3589.35 2112.24 3589.07 2114.83C3588.52 2120.02 3587.77 2125.27 3587.05 2130.59C3586.33 2135.92 3585.59 2141.28 3585.14 2146.96C3585.09 2147.63 3585.04 2148.31 3585 2148.99V2149Z" fill="#745C42"/>
<path d="M3541.72 2043.02C3551.16 2045.05 3564.1 2046.88 3574.46 2045.05C3561.16 2061.8 3538.28 2063.07 3519.58 2062.7C3534.02 2075.58 3552.24 2089.34 3567.95 2081.73C3548.68 2097.61 3522.41 2115.32 3494 2108.79C3518.24 2120 3576.25 2138.57 3592.89 2113.54C3609.08 2134.37 3650.52 2122.42 3665 2101.47C3644.19 2102.57 3621.06 2099.19 3611.34 2079.25C3628.27 2083.54 3635.42 2077.7 3649.6 2064.35C3636.13 2064.44 3613.22 2061.6 3603.27 2043.18C3615.11 2044.07 3621.58 2047.66 3631.62 2040.2C3610.76 2031.5 3590.91 2005.73 3587.3 1981C3590.06 1981.9 3564.26 2034.36 3541.71 2043.02H3541.72Z" fill="#8C8630"/>
<path d="M2819 2072.81L2828.27 1993.21C2829.07 1993.39 2829.87 1993.31 2830.62 1992.97C2831.42 1992.61 2832.23 1991.96 2832.97 1991C2833.63 1993.33 2834.38 1995.51 2835.17 1997.5C2836.36 2000.47 2837.63 2003.22 2839 2005.5L2835.58 2080C2830.14 2077.43 2824.61 2075 2819 2072.8V2072.81Z" fill="#755C42"/>
<path d="M2771.91 1948.12C2760.1 1934.7 2770.28 1914.61 2787.98 1925.06C2774.68 1902.28 2809.41 1909.25 2818.56 1919.45C2822.31 1889.6 2847.98 1899.85 2852.27 1922.77L2855.46 1921.86C2851.12 1906.05 2877.21 1912.21 2869.72 1926.28C2889.97 1904.14 2912.06 1947.05 2892.13 1949.75C2905.7 1956.87 2908.93 1984.08 2887.96 1977.44C2907.4 1993.64 2881.13 2020.58 2871.5 2000.78C2872.57 2020.5 2839.79 2030.81 2841.42 2002.92C2831.71 2011.78 2797.74 2022.35 2802.45 1996.23C2788.97 2009.58 2761.73 1990 2776.87 1978.09C2758.58 1978.73 2750.24 1951.77 2771.9 1948.12H2771.91Z" fill="#B4B84D"/>
<path d="M2663.47 2030.46L2651 1956.43C2651.82 1956.38 2652.57 1956.1 2653.2 1955.55C2653.86 1954.99 2654.46 1954.13 2654.9 1953C2656.19 1955.08 2657.51 1956.99 2658.84 1958.72C2660.8 1961.28 2662.79 1963.59 2664.75 1965.44L2681 2033C2675.23 2031.85 2669.37 2030.98 2663.49 2030.46H2663.47Z" fill="#755C42"/>
<path d="M2584.25 1928.34C2569.04 1918.54 2573.15 1896.37 2593.18 1901.7C2573.88 1883.24 2609.36 1880.64 2621.06 1888.04C2616.2 1858.14 2643.85 1861.16 2654.5 1882.17L2657.32 1880.43C2648.65 1866.3 2675.55 1865.24 2672.33 1880.87C2685.56 1854 2719.04 1889.56 2700.61 1897.54C2715.71 1900.78 2726.56 1926.23 2704.45 1925.45C2727.8 1935.89 2710.11 1969.03 2695.23 1952.47C2701.85 1971.26 2673.18 1990.06 2666.83 1962.64C2659.98 1973.82 2630.24 1993.2 2627.37 1966.66C2618.16 1983.21 2586.34 1971.6 2597.55 1956.01C2580.11 1961.54 2564.4 1937.71 2584.25 1928.34Z" fill="#A1A621"/>
<path d="M2360 1988.52L2362.85 1939.45C2363.68 1939.58 2364.48 1939.46 2365.22 1939.08C2366.01 1938.68 2366.8 1937.99 2367.48 1937C2368.3 1939.27 2369.18 1941.39 2370.1 1943.32C2371.48 1946.2 2372.94 1948.84 2374.46 1951.02L2375 1990C2370 1989.35 2364.98 1988.87 2360 1988.53V1988.52Z" fill="#755C42"/>
<path d="M2305.11 1897.63C2292.54 1884.87 2301.48 1864.18 2319.74 1873.63C2305.12 1851.57 2340.16 1856.59 2349.89 1866.28C2351.85 1836.17 2378.04 1844.99 2383.69 1867.69L2386.81 1866.59C2381.55 1851.01 2407.92 1855.7 2401.3 1870.22C2420.15 1846.9 2444.72 1888.61 2425.03 1892.45C2438.97 1898.81 2443.81 1925.87 2422.51 1920.4C2442.86 1935.53 2418.27 1963.99 2407.51 1944.71C2409.75 1964.38 2377.69 1976.57 2377.65 1948.55C2368.5 1957.96 2335.27 1970.47 2338.42 1944.05C2325.78 1958.18 2297.47 1940.12 2311.84 1927.34C2293.66 1929 2283.72 1902.48 2305.1 1897.6L2305.11 1897.63Z" fill="#8C8630"/>
<path d="M1956.99 2013.81L1945.86 1934.13C1944.08 1932.13 1942.32 1929.68 1940.61 1926.98C1939.46 1925.16 1938.32 1923.16 1937.24 1921C1936.69 1922.06 1936 1922.85 1935.29 1923.33C1934.6 1923.8 1933.83 1924.01 1933 1923.98L1939.35 2017C1945.17 2015.57 1951.07 2014.53 1957 2013.81H1956.99Z" fill="#755C42"/>
<path d="M1869.46 1888.61C1855.42 1877.35 1861.72 1855.6 1880.99 1862.88C1863.77 1842.58 1899.12 1843.42 1909.95 1851.95C1908.17 1821.62 1935.21 1827.33 1943.62 1849.35L1946.59 1847.88C1939.45 1832.93 1966.15 1834.48 1961.39 1849.78C1977.18 1824.23 2006.7 1863 1987.66 1869.17C2002.26 1873.87 2010.42 1900.35 1988.63 1897.43C2010.67 1910.13 1989.82 1941.5 1976.77 1923.51C1981.42 1942.92 1951.17 1958.9 1947.66 1930.9C1939.77 1941.4 1908.39 1957.86 1908.24 1931.07C1897.46 1946.7 1867.17 1932.02 1879.83 1917.53C1862.02 1921.37 1848.9 1896.04 1869.48 1888.61H1869.46Z" fill="#A1A621"/>
<path d="M1661 2107.26L1651.82 2027.35C1650.08 2025.31 1648.34 2022.81 1646.67 2020.07C1645.55 2018.22 1644.46 2016.18 1643.41 2014C1642.81 2015.05 1642.1 2015.81 1641.35 2016.28C1640.64 2016.73 1639.85 2016.92 1639 2016.87L1642.92 2110C1648.9 2108.72 1654.94 2107.83 1661 2107.26Z" fill="#755C42"/>
<path d="M1576.88 1980.28C1563.07 1968.66 1569.98 1947.07 1589.13 1954.84C1572.37 1934.09 1607.85 1935.83 1618.51 1944.65C1617.52 1914.26 1644.54 1920.66 1652.39 1942.9L1655.41 1941.51C1648.64 1926.38 1675.42 1928.6 1670.23 1943.78C1686.78 1918.63 1715.4 1958.17 1696.1 1963.86C1710.65 1968.93 1718.14 1995.62 1696.33 1992.14C1718.13 2005.41 1696.37 2036.25 1683.73 2017.92C1687.89 2037.46 1657.08 2052.67 1654.3 2024.58C1646.09 2034.87 1614.13 2050.54 1614.68 2023.75C1603.45 2039.1 1573.4 2023.64 1586.5 2009.48C1568.51 2012.86 1556 1987.19 1576.86 1980.28H1576.88Z" fill="#A1A621"/>
<path d="M1187.86 2018.61C1167.42 2015.27 1146.61 2011.71 1125.89 2010.91C1100.48 2009.93 1075.25 2012.28 1050 2014.69V1837H1213V2024C1204.72 2021.66 1196.23 2019.98 1187.86 2018.6V2018.61Z" fill="#A4D7D2"/>
<path d="M1132.08 1759L1048 1839L1215 1836.75L1132.08 1759Z" fill="#755C42"/>
<path d="M1125.73 2011.2C1119.48 2010.96 1113.23 2010.94 1107 2011.05V1961.86C1107 1955.31 1112.43 1950 1119.1 1950H1135.92C1142.59 1950 1148 1955.32 1148 1961.86V2013C1140.58 2012.13 1133.16 2011.48 1125.74 2011.2H1125.73Z" fill="#755C42"/>
<path d="M1114 1896C1114 1904.28 1120.94 1911 1129.5 1911C1138.06 1911 1145 1904.28 1145 1896C1145 1887.72 1138.06 1881 1129.5 1881C1120.94 1881 1114 1887.72 1114 1896Z" fill="#755C42"/>
<path d="M957.198 1719.61L1313.03 2012.34L1310.42 2015.37L954.594 1722.64L957.198 1719.61Z" fill="#FF9632"/>
<path d="M975.076 1696L1062.92 1769.04L1066 1771.6L1085 1787.39L1066.23 1809.29L1063.63 1812.32L1045.9 1833L1006.61 1800.31L1003.53 1797.75L988.4 1785.18L985.314 1782.61L972.183 1771.69L969.096 1769.13L955.09 1757.47L952.003 1754.91L936 1741.6L975.076 1696ZM954.631 1751.9L957.718 1754.46L971.745 1766.12L974.821 1768.68L987.942 1779.6L991.038 1782.18L1006.16 1794.75L1009.24 1797.32L1025.95 1811.2L1029.03 1813.77L1045.42 1827.41L1060.54 1809.77L1063.14 1806.73L1079.32 1787.88L1063.37 1774.62L1060.29 1772.04L1043.58 1758.15L1040.49 1755.59L1025.37 1743.01L1022.28 1740.44L1009.16 1729.53L1006.07 1726.97L992.047 1715.3L988.971 1712.74L975.565 1701.6L959.215 1720.67L956.618 1723.71L941.684 1741.13L954.631 1751.9Z" fill="#F6FFB0"/>
<path d="M1202.51 1925.99L1205.11 1922.96L1212.99 1913.76L1223.08 1902L1269.22 1940.36L1272.3 1942.93L1280.7 1949.91L1284.93 1953.43L1288 1955.99L1291.78 1959.13L1320.01 1982.6L1333 1993.39L1327.57 1999.73L1324.3 2003.55L1293.92 2039L1280.85 2028.13L1277.77 2025.57L1264.8 2014.79L1261.73 2012.23L1218.66 1976.42L1218.17 1976L1213 1971.72L1202.01 1962.58L1198.92 1960.01L1184.07 1947.67L1184 1947.61L1202.52 1925.99H1202.51ZM1201.55 1957.01L1204.63 1959.58L1212.99 1966.52L1218.19 1970.85L1221.28 1973.41L1232.24 1982.53L1235.31 1985.1L1247.96 1995.6L1251.03 1998.16L1264.35 2009.22L1267.42 2011.78L1280.39 2022.57L1283.48 2025.13L1293.42 2033.4L1309.52 2014.63L1312.12 2011.58L1322.89 1999.01L1323.1 1998.78L1327.31 1993.87L1320.96 1988.6L1317.81 1985.98L1314.72 1983.41L1301.76 1972.63L1298.67 1970.07L1287.99 1961.18L1285.36 1959L1282.29 1956.43L1273.93 1949.49L1269.65 1945.94L1266.57 1943.36L1255.61 1934.26L1252.54 1931.68L1238.98 1920.4L1235.89 1917.84L1223.57 1907.6L1213 1919.93L1208.21 1925.52L1205.61 1928.56L1189.68 1947.13L1190.23 1947.6L1201.56 1957.01H1201.55Z" fill="#F6FFB0"/>
<path d="M1025 1811.45L1028.06 1814L1028.85 1813.13L1044.22 1795.92L1046.86 1792.97L1063.36 1774.5L1066 1771.52L1062.9 1769L1060.26 1771.97L1043.75 1790.44L1041.11 1793.4L1025.75 1810.59L1025 1811.45Z" fill="#F6FFB0"/>
<path d="M1003 1797.44L1005.7 1794.42L1021.33 1777.01L1024.03 1773.99L1040.88 1755.21L1042.88 1753L1046 1755.59L1044.05 1757.77L1027.19 1776.56L1024.49 1779.57L1008.87 1797L1006.16 1800L1003 1797.44Z" fill="#F6FFB0"/>
<path d="M985 1782.41L988.086 1785L990.723 1781.98L1005.94 1764.56L1008.58 1761.55L1025.04 1742.68L1026 1741.6L1022.94 1739L1021.96 1740.12L1005.49 1758.97L1002.84 1761.99L987.638 1779.4L985 1782.41Z" fill="#F6FFB0"/>
<path d="M969 1769.41L972.098 1772L974.754 1768.97L990.059 1751.46L992.705 1748.42L1009.33 1729.41L1010 1728.63L1006.94 1726L1006.24 1726.82L989.608 1745.84L986.941 1748.88L971.657 1766.38L969 1769.41Z" fill="#F6FFB0"/>
<path d="M952 1754.45L955.061 1757L957.668 1754.02L972.712 1736.81L975.319 1733.82L991.717 1715.05L993 1713.59L989.969 1711L988.666 1712.51L972.258 1731.27L969.651 1734.26L954.607 1751.47L952 1754.45Z" fill="#F6FFB0"/>
<path d="M1255.35 1928.71L1258.41 1931.3L1218.77 1976.21L1215.71 1973.62L1255.35 1928.71Z" fill="#F6FFB0"/>
<path d="M1237.5 1916.54L1240.56 1919.13L1200.93 1964.05L1197.87 1961.46L1237.5 1916.54Z" fill="#F6FFB0"/>
<path d="M1231 1984.43L1234.09 1987L1235.53 1985.41L1251.95 1967.06L1254.63 1964.07L1270.33 1946.54L1273 1943.55L1269.87 1941L1267.2 1943.99L1251.5 1961.53L1248.82 1964.51L1232.4 1982.87L1231 1984.43Z" fill="#F6FFB0"/>
<path d="M1247 1996.46L1250.05 1999L1251.11 1997.82L1267.31 1979.68L1269.95 1976.74L1285.38 1959.46L1288 1956.51L1284.94 1954L1282.3 1956.95L1266.86 1974.23L1264.23 1977.17L1248.04 1995.31L1247 1996.46Z" fill="#F6FFB0"/>
<path d="M1301.28 1967.37L1304.34 1969.96L1264.7 2014.87L1261.64 2012.28L1301.28 1967.37Z" fill="#F6FFB0"/>
<path d="M1278 2025.45L1281.13 2028L1283.79 2025.01L1300.3 2006.59L1302.96 2003.6L1318.58 1986.17L1320 1984.57L1316.9 1982L1315.45 1983.63L1299.84 2001.06L1297.17 2004.05L1280.66 2022.48L1278 2025.45Z" fill="#F6FFB0"/>
<path d="M1320.57 1737.09L1322.74 1740.43L930.608 1984.74L928.435 1981.4L1320.57 1737.09Z" fill="#FF9632"/>
<path d="M1205.96 1774.84L1209.37 1772.7L1306.32 1712L1339 1762.03L1321.34 1773.09L1317.94 1775.21L1302.46 1784.91L1299.06 1787.04L1284.57 1796.12L1281.16 1798.25L1264.46 1808.7L1261.07 1810.84L1217.67 1838L1202.86 1815.32H1202.85L1200.68 1811.99L1185 1787.97L1205.96 1774.84ZM1204.08 1809.86L1206.27 1813.18L1218.89 1832.54L1237 1821.2L1240.39 1819.08L1258.85 1807.52L1262.25 1805.39L1278.94 1794.95L1282.34 1792.81L1296.85 1783.73L1300.24 1781.6L1315.73 1771.91L1319.13 1769.79L1333.42 1760.83L1320.94 1741.71L1318.76 1738.38L1305.1 1717.45L1290.31 1726.72L1286.9 1728.84L1271.43 1738.53L1268.02 1740.66L1253.52 1749.74L1250.11 1751.88L1233.43 1762.33L1230.03 1764.46L1211.59 1776L1208.18 1778.14L1190.57 1789.17L1204.09 1809.86H1204.08Z" fill="#F6FFB0"/>
<path d="M960.647 1928.88L964.054 1926.75L977.995 1918.02L981.401 1915.88L1032.31 1884L1047.35 1907.01L1049.52 1910.34L1050.35 1911.62L1065 1934.04L1050.35 1943.21L1048.53 1944.35L1045.13 1946.49L1027.14 1957.75L979.209 1987.75L975.813 1989.88L961.504 1998.84L958.097 2000.97L943.687 2010L919.016 1972.23L911 1959.97L960.647 1928.88ZM923.351 1971.55L929.266 1980.6L931.448 1983.93L944.911 2004.54L955.884 1997.66L959.281 1995.54L973.599 1986.58L977.006 1984.45L991.692 1975.25L995.098 1973.12L1009.03 1964.39L1012.44 1962.26L1017.97 1958.79H1017.98L1024.53 1954.67L1027.93 1952.55L1042.91 1943.17L1046.31 1941.05L1050.34 1938.52L1059.41 1932.85L1050.34 1918.97L1046.09 1912.47L1043.93 1909.13L1031.08 1889.46L1017.46 1897.99L1014.08 1900.11L999.116 1909.49H999.106L995.7 1911.62L983.604 1919.2L980.198 1921.33L966.256 1930.05L962.85 1932.19L948.164 1941.38L944.768 1943.52L930.449 1952.49L927.042 1954.6L916.568 1961.17L923.34 1971.55H923.351Z" fill="#F6FFB0"/>
<path d="M1211.61 1776.27L1225.35 1796.66L1227.56 1799.94L1240.37 1818.93L1241 1819.86L1237.64 1822L1236.98 1821.03L1224.17 1802.05L1221.96 1798.77L1208.21 1778.39L1206 1775.12L1209.4 1773L1211.61 1776.27Z" fill="#F6FFB0"/>
<path d="M1232.99 1762.44L1246.79 1783.09L1249.01 1786.41L1261.79 1805.55L1264 1808.86L1260.61 1811L1258.4 1807.68L1245.59 1788.54L1243.39 1785.21L1229.6 1764.56L1228 1762.17L1231.37 1760L1232.99 1762.44Z" fill="#F6FFB0"/>
<path d="M1253.18 1749.24L1266.92 1770.03L1269.13 1773.34L1281.8 1792.54L1284 1795.86L1280.62 1798L1278.41 1794.69L1265.73 1775.48L1263.53 1772.16L1249.79 1751.38L1249 1750.18L1252.36 1748L1253.18 1749.24Z" fill="#F6FFB0"/>
<path d="M1270.98 1738.87L1284.83 1759.42L1287.04 1762.71L1299.79 1781.6L1302 1784.89L1298.61 1787L1296.39 1783.72L1283.64 1764.82L1281.43 1761.53L1267.57 1740.99L1267 1740.15L1270.38 1738L1270.98 1738.87Z" fill="#F6FFB0"/>
<path d="M1290.42 1726.65L1304.09 1747.33L1306.28 1750.62L1318.82 1769.58L1321 1772.88L1317.64 1775L1315.46 1771.71L1302.92 1752.74L1300.74 1749.45L1287.06 1728.77L1286 1727.16L1289.33 1725L1290.42 1726.65Z" fill="#F6FFB0"/>
<path d="M996.979 1906.43L1030.23 1956.07L1026.84 1958.24L993.595 1908.6L996.979 1906.43Z" fill="#F6FFB0"/>
<path d="M1017.71 1897.96L1030.87 1917.67L1033.1 1921.03L1046.77 1941.5L1049 1944.84L1045.58 1947L1043.35 1943.65L1029.67 1923.16L1027.43 1919.81L1014.28 1900.11L1013 1898.18L1016.4 1896L1017.71 1897.96Z" fill="#F6FFB0"/>
<path d="M983.68 1919.36L996.835 1939.07L999.072 1942.42L1012.81 1963.04H1012.82L1014 1964.8L1010.58 1967L1009.37 1965.2L995.619 1944.59L993.371 1941.23L980.237 1921.53L978 1918.17L981.443 1916L983.68 1919.36Z" fill="#F6FFB0"/>
<path d="M966.569 1930.32L979.435 1949.78L981.638 1953.11L995.141 1973.52L996 1974.82L992.644 1977L991.765 1975.67L978.263 1955.24L976.059 1951.91L963.193 1932.46L961 1929.14L964.376 1927L966.569 1930.32Z" fill="#F6FFB0"/>
<path d="M948.211 1941.77L961.071 1961.02L963.267 1964.31L976.815 1984.6L979 1987.88L975.631 1990L973.435 1986.71L959.887 1966.43L957.691 1963.13L944.842 1943.9L943 1941.14L946.359 1939L948.211 1941.77Z" fill="#F6FFB0"/>
<path d="M930.508 1952.8L943.209 1972L945.383 1975.29L958.816 1995.6L961 1998.89L957.654 2001L955.481 1997.71L942.048 1977.39L939.874 1974.12L927.162 1954.91L926 1953.15L929.316 1951L930.508 1952.8Z" fill="#F6FFB0"/>
<path d="M2069.77 1773H2036.87L2032 1751H2075L2069.77 1773Z" fill="#584532"/>
<path d="M2094.05 1701.35L2095.76 1702.28L2070.7 1746.6L2068.99 1745.67L2094.05 1701.35Z" fill="#F6FFB0"/>
<path d="M2070.02 1698.98L2071.95 1699.39L2061.41 1746.16L2059.49 1745.75L2070.02 1698.98Z" fill="#F6FFB0"/>
<path d="M2048.94 1696.01L2051.05 1746.69L2049.09 1746.77L2046.98 1696.09L2048.94 1696.01Z" fill="#F6FFB0"/>
<path d="M2026.82 1694.95L2042.94 1746.74L2041.06 1747.3L2024.94 1695.51L2026.82 1694.95Z" fill="#F6FFB0"/>
<path d="M2014.46 1697.67L2036.2 1746.12L2034.4 1746.9L2012.65 1698.45L2014.46 1697.67Z" fill="#F6FFB0"/>
<path d="M2127.55 1661.52L2129.24 1662.49L2078.14 1747.6L2076.44 1746.63L2127.55 1661.52Z" fill="#F6FFB0"/>
<path d="M2030 1747.2L2028.65 1749L1984 1658L1987.2 1660.28L2030 1747.2Z" fill="#F6FFB0"/>
<path d="M2029 1745H2080V1751H2029V1745Z" fill="#755C42"/>
<path d="M2058.98 1436.01C2129.32 1436.01 2194.18 1479.55 2186.36 1546.35C2178.24 1615.6 2095.44 1703 2095.44 1703L2016.37 1702.79C2016.37 1702.79 1939.26 1607.1 1931.61 1546.34C1923.99 1485.76 1988.64 1436 2058.99 1436L2058.98 1436.01Z" fill="#FF9632"/>
<path d="M2186.35 1545.92C2178.24 1614.93 2095.58 1702 2095.58 1702L2090.01 1701.92C2092.66 1699.11 2149.16 1613.78 2157.13 1545.92C2164.39 1484.17 2103.62 1435.87 2047 1437.48C2051.66 1437.03 2054.47 1436 2059.21 1436C2129.43 1436 2194.17 1479.37 2186.36 1545.92H2186.35Z" fill="#F6FFB0"/>
<path d="M2058.1 1436H2058.29C2058.48 1436.02 2058.71 1436.04 2059 1436.07C1994.62 1442.15 1953.68 1488.44 1960.78 1544.83C1968.41 1605.49 2021.73 1701 2021.73 1701H2016.09C2016.09 1701 1939.25 1605.49 1931.62 1544.83C1924.01 1484.36 1988 1436.01 2058.11 1436.01L2058.1 1436Z" fill="#F6FFB0"/>
<path d="M2050.73 1437L2062.84 1437.15C2086.41 1451.89 2103.55 1488.86 2100.69 1541.77C2096.85 1612.61 2061.98 1702 2061.98 1702C2061.98 1702 2047.57 1701.83 2047.58 1701.78C2047.58 1701.78 2017.94 1603.92 2014.33 1541.77C2011.48 1492.77 2027.48 1451.93 2050.73 1437Z" fill="#F6FFB0"/>
<path d="M2123 1671.11C2107.64 1690.43 2095.59 1703 2095.59 1703L2016.62 1702.79C2016.62 1702.79 2005.87 1689.62 1992 1670C2018.12 1679.24 2085.19 1681.33 2123 1671.11Z" fill="#FF9632"/>
<path d="M2590.17 856.191V855.881H2546.16L2526.58 829.731L2518.7 832.501L2535.89 855.881H2437.38L2452.76 826.751L2445.45 823.871L2427.59 855.881H2359.29L2349.8 841.111L2342.88 845.561L2354.3 863.261L2594.15 863.031L2607.64 845.111L2602.26 840.801L2590.17 856.191Z" fill="#96D9A1"/>
<path d="M2529.71 729.86H2485.05V706.32H2476.69V729.86H2416.49C2411.87 729.86 2408.13 733.6 2408.13 738.22V747.2H2321.27V758.35H2408.13V801.24C2414.47 838.39 2555.49 833.28 2555.49 833.28C2560.1 833.28 2564.55 829.54 2564.55 824.92C2564.55 824.92 2575.53 767.55 2529.72 729.86H2529.71Z" fill="#FF9632"/>
<path d="M2344.41 720.2L2343.24 719.44C2339.37 716.93 2334.19 718.03 2331.68 721.9L2299.84 771C2297.33 774.87 2298.43 780.05 2302.31 782.56L2303.48 783.32C2307.35 785.83 2312.53 784.73 2315.04 780.86L2346.88 731.76C2349.39 727.89 2348.29 722.71 2344.42 720.2H2344.41Z" fill="#F6FFB0"/>
<path d="M2352.79 763.819L2307.55 726.699C2303.98 723.769 2298.71 724.289 2295.78 727.859L2294.9 728.939C2291.97 732.509 2292.49 737.779 2296.06 740.709L2341.3 777.829C2344.87 780.759 2350.14 780.239 2353.06 776.669L2353.94 775.589C2356.87 772.019 2356.35 766.749 2352.78 763.819H2352.79Z" fill="#96D9A1"/>
<path d="M2598.45 694H2343.48V706.8H2598.45V694Z" fill="#F6FFB0"/>
<path d="M2485.77 739.859H2463.26C2460.5 739.859 2458.26 742.239 2458.26 745.179V802.469C2458.26 805.409 2460.5 807.789 2463.26 807.789H2510.34C2513.1 807.789 2515.34 805.409 2515.34 802.469C2515.34 802.469 2518.46 768.029 2485.77 739.859Z" fill="#96D9A1"/>
<path d="M2525.42 739.438L2495.69 739.348C2523.57 770.768 2524.02 785.928 2520.91 802.048C2520.35 804.928 2523.15 807.368 2525.91 807.368H2550C2552.76 807.368 2555 804.988 2555 802.048C2555 802.048 2558.11 767.608 2525.43 739.438H2525.42Z" fill="#F6FFB0"/>
</g>
<defs>
<clipPath id="clip0_1086_523">
<rect width="5000" height="2202" fill="white"/>
</clipPath>
</defs>
</svg>
